<svg width="48" height="48" viewBox="0 0 48 48" fill="none" xmlns="http://www.w3.org/2000/svg">
<path d="M32.2949 29.6401C31.5485 32.9907 30.0459 36.1058 27.9238 38.7574C27.3086 39.5259 26.065 39.1567 25.9429 38.1799L25.425 34.0383L26.4605 31.9674C26.6394 31.6094 26.3792 31.1883 25.979 31.1883H22.021C21.6208 31.1883 21.3606 31.6094 21.5395 31.9674L22.575 34.0383L22.0575 38.1795C21.9355 39.1564 20.6918 39.5258 20.0766 38.7571C17.9546 36.1056 16.452 32.9906 15.7057 29.6401C15.5801 29.0763 15.0359 28.711 14.4629 28.7839C6.63519 29.7805 1.2 32.9266 1.2 42.5883C1.2 44.1623 2.47598 45.4383 4.04999 45.4383H43.95C45.524 45.4383 46.8 44.1623 46.8 42.5883C46.8 32.9267 41.3648 29.7805 33.5377 28.7839C32.9647 28.711 32.4204 29.0763 32.2949 29.6401Z" fill="#71A6A6"/>
<path d="M24 2.56177C18.3055 2.56177 13.6894 7.17783 13.6894 12.8724C13.6894 22.0035 18.3055 28.3383 24 28.3383C29.6945 28.3383 34.3106 22.0035 34.3106 12.8724C34.3106 7.17783 29.6945 2.56177 24 2.56177Z" fill="#71A6A6"/>
</svg>
