<svg width="45" height="45" viewBox="0 0 45 45" fill="none" xmlns="http://www.w3.org/2000/svg">
<path fill-rule="evenodd" clip-rule="evenodd" d="M37.5 22.5C37.5 21.4645 36.6605 20.625 35.625 20.625H9.375C8.33947 20.625 7.5 21.4645 7.5 22.5C7.5 23.5355 8.33947 24.375 9.375 24.375H35.625C36.6605 24.375 37.5 23.5355 37.5 22.5Z" fill="#D1D1D1"/>
<path fill-rule="evenodd" clip-rule="evenodd" d="M23.8258 8.04917C23.0936 7.31694 21.9064 7.31694 21.1742 8.04917L8.04918 21.1742C7.31694 21.9064 7.31694 23.0936 8.04918 23.8258L21.1742 36.9508C21.9064 37.6831 23.0936 37.6831 23.8258 36.9508C24.5581 36.2186 24.5581 35.0314 23.8258 34.2992L12.0266 22.5L23.8258 10.7008C24.5581 9.96859 24.5581 8.78141 23.8258 8.04917Z" fill="#D1D1D1"/>
</svg>
