<svg width="45" height="45" viewBox="0 0 45 45" fill="none" xmlns="http://www.w3.org/2000/svg">
<path fill-rule="evenodd" clip-rule="evenodd" d="M7.5 22.5C7.5 21.4645 8.33947 20.625 9.375 20.625H35.625C36.6605 20.625 37.5 21.4645 37.5 22.5C37.5 23.5355 36.6605 24.375 35.625 24.375H9.375C8.33947 24.375 7.5 23.5355 7.5 22.5Z" fill="#B4CECE"/>
<path fill-rule="evenodd" clip-rule="evenodd" d="M21.1742 8.04917C21.9064 7.31694 23.0936 7.31694 23.8258 8.04917L36.9508 21.1742C37.6831 21.9064 37.6831 23.0936 36.9508 23.8258L23.8258 36.9508C23.0936 37.6831 21.9064 37.6831 21.1742 36.9508C20.4419 36.2186 20.4419 35.0314 21.1742 34.2992L32.9734 22.5L21.1742 10.7008C20.4419 9.96859 20.4419 8.78141 21.1742 8.04917Z" fill="#B4CECE"/>
</svg>
