<svg width="16" height="17" viewBox="0 0 16 17" fill="none" xmlns="http://www.w3.org/2000/svg">
<g clip-path="url(#clip0_284_19918)">
<path d="M2.41787 16.5H13.5823C14.7527 16.5 15.7038 15.5489 15.7038 14.3785V3.80665C15.7038 2.63628 14.7527 1.68516 13.5823 1.68516H12.7408V1.09258C12.7408 0.766652 12.4741 0.5 12.1482 0.5C11.8223 0.5 11.5556 0.766652 11.5556 1.09258V1.68516H4.44456V1.09258C4.44456 0.766652 4.17786 0.5 3.85193 0.5C3.526 0.5 3.25934 0.766652 3.25934 1.09258V1.68516H2.41787C1.24751 1.68516 0.296387 2.63628 0.296387 3.80665V14.3785C0.296387 15.5489 1.24751 16.5 2.41787 16.5ZM1.4816 3.80665C1.4816 3.29111 1.90233 2.87038 2.41787 2.87038H3.25934V3.46296C3.25934 3.78889 3.526 4.05554 3.85193 4.05554C4.17786 4.05554 4.44451 3.78889 4.44451 3.46296V2.87038H11.5556V3.46296C11.5556 3.78889 11.8223 4.05554 12.1482 4.05554C12.4741 4.05554 12.7408 3.78889 12.7408 3.46296V2.87038H13.5823C14.0978 2.87038 14.5185 3.29111 14.5185 3.80665V14.3785C14.5185 14.8941 14.0978 15.3148 13.5823 15.3148H2.41787C1.90233 15.3148 1.4816 14.8941 1.4816 14.3785V3.80665Z" fill="#0F7EB0"/>
<path d="M4.59278 7.31495C5.00187 7.31495 5.3335 6.98332 5.3335 6.57422C5.3335 6.16513 5.00187 5.8335 4.59278 5.8335C4.18369 5.8335 3.85205 6.16513 3.85205 6.57422C3.85205 6.98332 4.18369 7.31495 4.59278 7.31495Z" fill="#0F7EB0"/>
<path d="M7.85206 7.31495C8.26115 7.31495 8.59278 6.98332 8.59278 6.57422C8.59278 6.16513 8.26115 5.8335 7.85206 5.8335C7.44296 5.8335 7.11133 6.16513 7.11133 6.57422C7.11133 6.98332 7.44296 7.31495 7.85206 7.31495Z" fill="#0F7EB0"/>
<path d="M11.1113 7.31495C11.5204 7.31495 11.8521 6.98332 11.8521 6.57422C11.8521 6.16513 11.5204 5.8335 11.1113 5.8335C10.7022 5.8335 10.3706 6.16513 10.3706 6.57422C10.3706 6.98332 10.7022 7.31495 11.1113 7.31495Z" fill="#0F7EB0"/>
<path d="M4.59278 10.2778C5.00187 10.2778 5.3335 9.9462 5.3335 9.53711C5.3335 9.12802 5.00187 8.79639 4.59278 8.79639C4.18369 8.79639 3.85205 9.12802 3.85205 9.53711C3.85205 9.9462 4.18369 10.2778 4.59278 10.2778Z" fill="#0F7EB0"/>
<path d="M4.59278 13.2407C5.00187 13.2407 5.3335 12.9091 5.3335 12.5C5.3335 12.0909 5.00187 11.7593 4.59278 11.7593C4.18369 11.7593 3.85205 12.0909 3.85205 12.5C3.85205 12.9091 4.18369 13.2407 4.59278 13.2407Z" fill="#0F7EB0"/>
<path d="M11.2595 8.79639H8.0003C7.67437 8.79639 7.40771 9.06304 7.40771 9.38897V12.6482C7.40771 12.9741 7.67437 13.2408 8.0003 13.2408H11.2595C11.5855 13.2408 11.8521 12.9741 11.8521 12.6482V9.38897C11.8521 9.06304 11.5855 8.79639 11.2595 8.79639ZM10.667 12.0556H8.59288V9.98155H10.667V12.0556Z" fill="#0F7EB0"/>
</g>
<defs>
<clipPath id="clip0_284_19918">
<rect width="16" height="16" fill="white" transform="translate(0 0.5)"/>
</clipPath>
</defs>
</svg>
