<svg width="24" height="24" viewBox="0 0 24 24" fill="none" xmlns="http://www.w3.org/2000/svg">
<path d="M24 8.22394V16.8904C24 17.9318 23.1595 18.7756 22.122 18.7756H22.0496V20.9094C22.0496 21.5053 21.3948 21.8668 20.8933 21.5473L16.5405 18.7756H8.39001C8.07736 18.7756 7.78266 18.699 7.52382 18.5631C6.92245 18.2489 6.51239 17.618 6.51239 16.8904V8.22394C6.51239 7.18247 7.3529 6.3387 8.38965 6.3387H22.122C23.1595 6.3387 24 7.18247 24 8.22394Z" fill="#0F7EB0"/>
<g style="mix-blend-mode:multiply">
<path d="M20.2061 6.33906V15.4885C20.2061 16.6454 19.2717 17.5827 18.1199 17.5827H9.06382L7.52382 18.5634C6.92245 18.2492 6.51239 17.6184 6.51239 16.8907V8.22429C6.51239 7.18282 7.3529 6.33906 8.38965 6.33906H20.2057H20.2061Z" fill="#CACACA"/>
</g>
<path d="M2.08616 3H17.3441C18.4962 3 19.4303 3.93768 19.4303 5.09424V14.7245C19.4303 15.881 18.4962 16.8187 17.3441 16.8187H8.28838L3.45208 19.899C2.89502 20.2538 2.16705 19.852 2.16705 19.1897V16.8187H2.08616C0.93406 16.8187 0 15.881 0 14.7245V5.09424C0 3.93768 0.93406 3 2.08616 3Z" fill="#FFA857"/>
<path d="M10.4599 10.6568C10.8712 10.2438 10.8712 9.57435 10.4599 9.16143C10.0485 8.74851 9.38164 8.74851 8.97031 9.16143C8.55897 9.57436 8.55897 10.2438 8.97031 10.6568C9.38164 11.0697 10.0485 11.0697 10.4599 10.6568Z" fill="white"/>
<path d="M14.5656 10.6566C14.9769 10.2437 14.9769 9.57419 14.5656 9.16126C14.1543 8.74834 13.4874 8.74834 13.076 9.16126C12.6647 9.57419 12.6647 10.2437 13.076 10.6566C13.4873 11.0695 14.1542 11.0695 14.5656 10.6566Z" fill="white"/>
<path d="M5.85087 10.9384C6.41702 10.8042 6.76766 10.2347 6.63403 9.6664C6.50041 9.09806 5.93313 8.74607 5.36697 8.88021C4.80082 9.01435 4.45018 9.58383 4.58381 10.1522C4.71743 10.7205 5.28471 11.0725 5.85087 10.9384Z" fill="white"/>
</svg>
