<svg width="24" height="24" viewBox="0 0 24 24" fill="none" xmlns="http://www.w3.org/2000/svg">
<g clip-path="url(#clip0_624_10372)">
<path d="M2.7679 18.719C1.96593 18.719 1.18245 18.5144 0.472382 18.1156C0.107044 17.9275 -0.034458 17.4568 0.183795 17.1027C0.908947 15.9439 1.1708 14.5275 0.83879 13.1954C0.494659 11.8144 -0.00327059 10.6513 0.000293687 9.18939C0.0126498 4.06033 4.28176 -0.0977534 9.40559 0.00174936C14.3546 0.10143 18.4333 4.26165 18.4333 9.21196C18.4334 15.6771 11.6578 20.2162 5.67617 17.7197C4.85169 18.3668 3.81538 18.719 2.7679 18.719ZM1.79342 17.1405C2.92021 17.4905 4.18749 17.2109 5.0564 16.3709C5.27049 16.1638 5.59074 16.1117 5.85937 16.2402C10.9805 18.6887 17.0076 14.8509 17.0075 9.21196C17.0075 5.00409 13.5844 1.51187 9.3769 1.42716C5.04084 1.34103 1.43646 4.85279 1.426 9.19283C1.42262 10.5814 1.96439 11.6912 2.26046 13.0065C2.57239 14.3928 2.40808 15.8586 1.79342 17.1405Z" fill="white"/>
<path d="M21.232 23.9998C20.1846 23.9998 19.1482 23.6475 18.3239 23.0004C15.1428 24.3281 11.3588 23.7235 8.75054 21.471C8.45256 21.2136 8.41965 20.7635 8.67693 20.4655C8.93427 20.1676 9.38438 20.1345 9.68236 20.3919C11.9957 22.3897 15.3836 22.8391 18.1406 21.521C18.4092 21.3925 18.7294 21.4446 18.9436 21.6517C19.8124 22.4916 21.0798 22.7714 22.2066 22.4213C21.4815 20.9089 21.381 19.1762 21.9429 17.5722C21.948 17.5577 21.9535 17.5435 21.9594 17.5294C22.3698 16.562 22.5766 15.5338 22.574 14.4736C22.5695 12.6042 21.9477 10.875 20.7756 9.47277C20.5232 9.17064 20.5634 8.72112 20.8655 8.46865C21.1675 8.21613 21.6171 8.2564 21.8696 8.55847C23.238 10.1957 23.9945 12.2951 23.9998 14.4701C24.0028 15.7159 23.7611 16.9249 23.2814 18.064C22.7775 19.5226 23.0092 21.0843 23.8161 22.3833C24.0346 22.7375 23.893 23.2082 23.5275 23.3965C22.8175 23.795 22.0339 23.9997 21.232 23.9998Z" fill="white"/>
<path d="M9.21674 10.3749C9.83971 10.3749 10.3447 9.87013 10.3447 9.2475C10.3447 8.62486 9.83971 8.12012 9.21674 8.12012C8.59378 8.12012 8.08877 8.62486 8.08877 9.2475C8.08877 9.87013 8.59378 10.3749 9.21674 10.3749Z" fill="white"/>
<path d="M5.06103 10.3749C5.684 10.3749 6.18901 9.87013 6.18901 9.2475C6.18901 8.62486 5.684 8.12012 5.06103 8.12012C4.43807 8.12012 3.93306 8.62486 3.93306 9.2475C3.93306 9.87013 4.43807 10.3749 5.06103 10.3749Z" fill="white"/>
<path d="M13.3725 10.3749C13.9955 10.3749 14.5005 9.87013 14.5005 9.2475C14.5005 8.62486 13.9955 8.12012 13.3725 8.12012C12.7495 8.12012 12.2445 8.62486 12.2445 9.2475C12.2445 9.87013 12.7495 10.3749 13.3725 10.3749Z" fill="white"/>
</g>
<defs>
<clipPath id="clip0_624_10372">
<rect width="24" height="24" fill="white"/>
</clipPath>
</defs>
</svg>
