<svg width="16" height="16" viewBox="0 0 16 16" fill="none" xmlns="http://www.w3.org/2000/svg">
<g clip-path="url(#clip0_204_6608)">
<path d="M10.8506 9.41291L8.61975 7.73979V4.3316C8.61975 3.98891 8.34275 3.71191 8.00006 3.71191C7.65737 3.71191 7.38037 3.98891 7.38037 4.3316V8.04966C7.38037 8.24485 7.47209 8.42891 7.62825 8.54541L10.1069 10.4044C10.2185 10.4881 10.3486 10.5284 10.4781 10.5284C10.6671 10.5284 10.853 10.4435 10.9745 10.2799C11.1803 10.0066 11.1245 9.61804 10.8506 9.41291Z" fill="#22A9E7"/>
<path d="M8 0C3.58853 0 0 3.58853 0 8C0 12.4115 3.58853 16 8 16C12.4115 16 16 12.4115 16 8C16 3.58853 12.4115 0 8 0ZM8 14.7607C4.27266 14.7607 1.23934 11.7273 1.23934 8C1.23934 4.27266 4.27266 1.23934 8 1.23934C11.728 1.23934 14.7607 4.27266 14.7607 8C14.7607 11.7273 11.7273 14.7607 8 14.7607Z" fill="#22A9E7"/>
</g>
<defs>
<clipPath id="clip0_204_6608">
<rect width="16" height="16" fill="white"/>
</clipPath>
</defs>
</svg>
