<svg width="18" height="18" viewBox="0 0 18 18" fill="none" xmlns="http://www.w3.org/2000/svg">
<g clip-path="url(#clip0_568_558)">
<path d="M17.4726 16.9453H16.9101V7.98069C16.9101 7.75369 16.7648 7.55221 16.5495 7.48042L10.5821 5.49128V3.69174C10.5821 3.47191 10.4457 3.27514 10.2399 3.19797L1.8026 0.0339753C1.45821 -0.0951536 1.09009 0.159835 1.09009 0.527745V16.9454H0.527588C0.236354 16.9454 0.000244141 17.1815 0.000244141 17.4727C0.000244141 17.7639 0.236354 18 0.527588 18C0.646029 18 17.244 18 17.4726 18C17.7638 18 17.9999 17.7639 17.9999 17.4727C17.9999 17.1815 17.7638 16.9453 17.4726 16.9453ZM5.30873 16.9453H4.25408V14.836H5.30873V16.9453ZM7.41807 16.9453H6.36342V14.836H7.41807V16.9453ZM9.52741 5.87135V16.9453H8.47276V14.3087C8.47276 14.0174 8.23665 13.7813 7.94542 13.7813H3.72674C3.4355 13.7813 3.19939 14.0174 3.19939 14.3087V16.9453H2.14474V1.28867L9.52741 4.05715V5.87135ZM13.7461 16.9453H12.6914V14.836H13.7461V16.9453ZM15.8554 16.9453H14.8007V14.3087C14.8007 14.0174 14.5646 13.7813 14.2734 13.7813H12.1641C11.8728 13.7813 11.6367 14.0174 11.6367 14.3087V16.9453H10.5821V6.60299L15.8554 8.36077V16.9453Z" fill="white"/>
<path d="M4.78134 11.6719H3.72668C3.43545 11.6719 3.19934 11.908 3.19934 12.1992C3.19934 12.4905 3.43542 12.7266 3.72668 12.7266H4.78134C5.07257 12.7266 5.30868 12.4905 5.30868 12.1992C5.30868 11.908 5.07257 11.6719 4.78134 11.6719Z" fill="white"/>
<path d="M7.9454 11.6719H6.89075C6.59951 11.6719 6.3634 11.908 6.3634 12.1992C6.3634 12.4905 6.59948 12.7266 6.89075 12.7266H7.9454C8.23663 12.7266 8.47274 12.4905 8.47274 12.1992C8.47274 11.908 8.23663 11.6719 7.9454 11.6719Z" fill="white"/>
<path d="M4.78134 9.56274H3.72668C3.43545 9.56274 3.19934 9.79885 3.19934 10.0901C3.19934 10.3813 3.43542 10.6174 3.72668 10.6174H4.78134C5.07257 10.6174 5.30868 10.3813 5.30868 10.0901C5.30868 9.79885 5.07257 9.56274 4.78134 9.56274Z" fill="white"/>
<path d="M7.9454 9.56274H6.89075C6.59951 9.56274 6.3634 9.79885 6.3634 10.0901C6.3634 10.3813 6.59948 10.6174 6.89075 10.6174H7.9454C8.23663 10.6174 8.47274 10.3813 8.47274 10.0901C8.47274 9.79885 8.23663 9.56274 7.9454 9.56274Z" fill="white"/>
<path d="M14.2733 11.6719H12.1639C11.8727 11.6719 11.6366 11.908 11.6366 12.1992C11.6366 12.4905 11.8727 12.7266 12.1639 12.7266H14.2733C14.5645 12.7266 14.8006 12.4905 14.8006 12.1992C14.8006 11.908 14.5645 11.6719 14.2733 11.6719Z" fill="white"/>
<path d="M14.2733 9.56274H12.1639C11.8727 9.56274 11.6366 9.79885 11.6366 10.0901C11.6366 10.3813 11.8727 10.6174 12.1639 10.6174H14.2733C14.5645 10.6174 14.8006 10.3813 14.8006 10.0901C14.8006 9.79885 14.5645 9.56274 14.2733 9.56274Z" fill="white"/>
<path d="M4.78134 7.45337H3.72668C3.43545 7.45337 3.19934 7.68948 3.19934 7.98071C3.19934 8.27195 3.43542 8.50806 3.72668 8.50806H4.78134C5.07257 8.50806 5.30868 8.27195 5.30868 7.98071C5.30865 7.68948 5.07257 7.45337 4.78134 7.45337Z" fill="white"/>
<path d="M7.9454 7.45337H6.89075C6.59951 7.45337 6.3634 7.68948 6.3634 7.98071C6.3634 8.27195 6.59948 8.50806 6.89075 8.50806H7.9454C8.23663 8.50806 8.47274 8.27195 8.47274 7.98071C8.47274 7.68948 8.23663 7.45337 7.9454 7.45337Z" fill="white"/>
<path d="M4.78134 5.34399H3.72668C3.43545 5.34399 3.19934 5.5801 3.19934 5.87134C3.19934 6.16257 3.43542 6.39868 3.72668 6.39868H4.78134C5.07257 6.39868 5.30868 6.16257 5.30868 5.87134C5.30865 5.5801 5.07257 5.34399 4.78134 5.34399Z" fill="white"/>
<path d="M7.9454 5.34399H6.89075C6.59951 5.34399 6.3634 5.5801 6.3634 5.87134C6.3634 6.16257 6.59948 6.39868 6.89075 6.39868H7.9454C8.23663 6.39868 8.47274 6.16257 8.47274 5.87134C8.47274 5.5801 8.23663 5.34399 7.9454 5.34399Z" fill="white"/>
</g>
<defs>
<clipPath id="clip0_568_558">
<rect width="18" height="18" fill="white"/>
</clipPath>
</defs>
</svg>
