<svg width="37" height="36" viewBox="0 0 37 36" fill="none" xmlns="http://www.w3.org/2000/svg">
<g clip-path="url(#clip0_1606_10240)">
<path d="M36.5 10.4308L27.5699 13.6131L28.1015 14.6763C28.8582 16.1916 28.1289 18.0628 26.1699 18.6075C26.1451 18.6158 23.4315 19.3441 22.6074 16.8758L21.8131 14.4898L24.0734 12.2285L18.4959 3.86328L12.9183 12.2285L15.1786 14.4898L14.3843 16.8758C13.8702 18.4159 12.7669 18.9351 10.8116 18.5632C10.5981 18.4592 9.483 18.4109 8.85215 17.0375C8.50395 16.2813 8.51837 15.4211 8.89027 14.6763L9.42083 13.6141L0.5 10.4298L4.4801 25.8087H13.8394L18.4959 21.1522L23.1524 25.8087H32.5138L36.5 10.4308Z" fill="white"/>
<path d="M15.7635 26.8633L18.4911 24.1357L21.2186 26.8633L18.4911 29.5908L15.7635 26.8633Z" fill="white"/>
<path d="M13.8393 27.918H4.7818V32.1377H18.0591L13.8393 27.918Z" fill="white"/>
<path d="M32.21 27.918H23.1524L18.9327 32.1377H32.21V27.918Z" fill="white"/>
</g>
<defs>
<clipPath id="clip0_1606_10240">
<rect width="36" height="36" fill="white" transform="translate(0.5)"/>
</clipPath>
</defs>
</svg>
