<svg width="24" height="24" viewBox="0 0 24 24" fill="none" xmlns="http://www.w3.org/2000/svg">
<g clip-path="url(#clip0_200_4266)">
<path d="M8.44222 1.77994L6.47445 20.042C6.41848 20.5614 6.79421 21.0279 7.31366 21.0839L20.4423 22.4985C20.9617 22.5545 21.4282 22.1788 21.4842 21.6593L23.4519 3.39727C23.5079 2.87781 23.1322 2.41134 22.6127 2.35537L9.48412 0.940737C8.96467 0.884765 8.4982 1.26049 8.44222 1.77994Z" fill="#0F7EB0"/>
<path d="M14.5641 0.06602L1.38447 0.99225C0.865619 1.02871 0.474567 1.47888 0.51103 1.99774L1.79916 20.3268C1.83562 20.8457 2.28579 21.2367 2.80464 21.2003L15.9842 20.274C16.5031 20.2376 16.8941 19.7874 16.8577 19.2686L15.5695 0.939459C15.5331 0.420608 15.0829 0.0295564 14.5641 0.06602Z" fill="#A9C5C5"/>
<path d="M11.986 20.5558L16.9255 20.2085L15.5698 0.929896C15.5337 0.415644 15.0874 0.0279628 14.5727 0.0640588L11.986 0.245946V20.5558Z" fill="#80AEAE"/>
<path d="M5.574 24H17.3807C17.9006 24 18.322 23.5786 18.322 23.0587V4.92627C18.322 4.4064 17.9006 3.98496 17.3807 3.98496H5.574C5.05412 3.98496 4.63269 4.4064 4.63269 4.92627V23.0582C4.63269 23.5781 5.05412 23.9995 5.574 23.9995V24Z" fill="#FFA857"/>
<path d="M16.0667 14.0562H6.888V15.4635H16.0667V14.0562Z" fill="white"/>
<path d="M16.0667 16.5595H6.888V17.9668H16.0667V16.5595Z" fill="white"/>
<path d="M16.0667 19.0623H6.888V20.4696H16.0667V19.0623Z" fill="white"/>
<path d="M6.74591 10.0036C6.74591 8.64227 7.79082 7.68596 9.21544 7.68596C10.0832 7.68596 10.7671 8.00285 11.204 8.57242L10.2604 9.41482C10.0007 9.08573 9.69032 8.89541 9.29139 8.89541C8.67072 8.89541 8.25304 9.32622 8.25304 10.0036C8.25304 10.681 8.67119 11.1118 9.29139 11.1118C9.69032 11.1118 10.0007 10.9219 10.2604 10.5924L11.204 11.4348C10.7671 12.0048 10.0832 12.3213 9.21544 12.3213C7.79082 12.3213 6.74591 11.3654 6.74591 10.0036Z" fill="white"/>
<path d="M16.3718 7.78723L14.4972 12.22H13.028L11.1534 7.78723H12.7618L13.8193 10.3772L14.9022 7.78723H16.3714H16.3718Z" fill="white"/>
</g>
<defs>
<clipPath id="clip0_200_4266">
<rect width="24" height="24" fill="white"/>
</clipPath>
</defs>
</svg>
