<svg width="18" height="18" viewBox="0 0 18 18" fill="none" xmlns="http://www.w3.org/2000/svg">
<path d="M15.8819 2.54106C15.8819 1.4293 14.9819 0.529297 13.8701 0.529297H4.12895C3.01719 0.529297 2.11719 1.4293 2.11719 2.54106V15.4587C2.11719 16.5705 3.01719 17.4705 4.12895 17.4705H13.8701C14.9819 17.4705 15.8819 16.5705 15.8819 15.4587V2.54106ZM14.8231 15.4587C14.8231 15.9881 14.3995 16.4117 13.8701 16.4117H4.12895C3.59954 16.4117 3.17601 15.9881 3.17601 15.4587V2.54106C3.17601 2.01165 3.59954 1.58812 4.12895 1.58812H13.8701C14.3995 1.58812 14.8231 2.01165 14.8231 2.54106V15.4587Z" fill="#22A9E7"/>
<path d="M5.76965 10.0588H12.0167C12.1755 10.0588 12.3344 10.0059 12.4402 9.84706C12.5461 9.74118 12.5991 9.58236 12.5461 9.42353C12.3344 8.15295 11.5402 7.14706 10.4814 6.67059C10.7991 6.30001 11.0108 5.82353 11.0108 5.24118C11.0108 4.07648 10.0579 3.12354 8.89318 3.12354C7.72847 3.12354 6.77553 4.07648 6.77553 5.24118C6.77553 5.77059 6.98729 6.24706 7.30494 6.67059C6.24612 7.20001 5.39906 8.20589 5.24023 9.42353C5.24023 9.58236 5.24023 9.74118 5.34612 9.84706C5.452 10.0059 5.61082 10.0588 5.76965 10.0588ZM7.83435 5.29412C7.83435 4.71177 8.31082 4.2353 8.89318 4.2353C9.47553 4.2353 9.952 4.71177 9.952 5.29412C9.952 5.87648 9.47553 6.35295 8.89318 6.35295C8.31082 6.35295 7.83435 5.87648 7.83435 5.29412ZM8.89318 7.41177C9.952 7.41177 10.9049 8.04706 11.3285 9.00001H6.45788C6.88141 8.04706 7.83435 7.41177 8.89318 7.41177Z" fill="#22A9E7"/>
<path d="M13.2344 11.647H4.76379C4.44614 11.647 4.23438 11.8587 4.23438 12.1764C4.23438 12.494 4.44614 12.7058 4.76379 12.7058H13.2344C13.552 12.7058 13.7638 12.494 13.7638 12.1764C13.7638 11.8587 13.552 11.647 13.2344 11.647Z" fill="#22A9E7"/>
<path d="M13.2344 13.7646H4.76379C4.44614 13.7646 4.23438 13.9764 4.23438 14.2941C4.23438 14.6117 4.44614 14.8235 4.76379 14.8235H13.2344C13.552 14.8235 13.7638 14.6117 13.7638 14.2941C13.7638 13.9764 13.552 13.7646 13.2344 13.7646Z" fill="#22A9E7"/>
</svg>
