<svg width="16" height="16" viewBox="0 0 16 16" fill="none" xmlns="http://www.w3.org/2000/svg">
<g clip-path="url(#clip0_794_385)">
<path d="M13.9385 5.14199H13.5003V1.34916C13.5003 0.973159 13.1945 0.666992 12.8185 0.666992H6.84883C6.47283 0.666992 6.16699 0.973159 6.16699 1.34916V5.14199H4.33366V3.87533C4.33366 3.62199 4.12849 3.41699 3.87533 3.41699H1.12533C0.872159 3.41699 0.666992 3.62199 0.666992 3.87533V14.8753C0.666992 15.1287 0.872159 15.3337 1.12533 15.3337H3.87533C3.98833 15.3337 4.09033 15.2913 4.17033 15.2235H13.9387C14.708 15.2235 15.3338 14.5978 15.3338 13.8278V6.53666C15.3337 5.76766 14.7078 5.14199 13.9385 5.14199ZM3.41699 14.417H1.58366V4.33366H3.41699V14.417ZM7.08366 1.58366H12.5837V5.14199H7.08366V1.58366ZM14.417 13.828C14.417 14.092 14.2023 14.307 13.9385 14.307H4.33366V6.05866H13.9385C14.2023 6.05866 14.417 6.27349 14.417 6.53666V13.828Z" fill="#22A9E7"/>
<path d="M5.89779 9.5498H12.8523C13.1055 9.5498 13.3106 9.3448 13.3106 9.09147V7.25814C13.3106 7.0048 13.1055 6.7998 12.8523 6.7998H5.89779C5.64462 6.7998 5.43945 7.0048 5.43945 7.25814V9.09147C5.43945 9.3448 5.64462 9.5498 5.89779 9.5498ZM6.35612 7.71647H12.394V8.63314H6.35612V7.71647Z" fill="#22A9E7"/>
<path d="M11.2083 3.13281H8.45833C8.20517 3.13281 8 3.33781 8 3.59115C8 3.84448 8.20517 4.04948 8.45833 4.04948H11.2083C11.4615 4.04948 11.6667 3.84448 11.6667 3.59115C11.6667 3.33781 11.4615 3.13281 11.2083 3.13281Z" fill="#22A9E7"/>
<path d="M6.90695 10.5479H5.89779C5.64462 10.5479 5.43945 10.7529 5.43945 11.0062C5.43945 11.2595 5.64462 11.4645 5.89779 11.4645H6.90695C7.16012 11.4645 7.36529 11.2595 7.36529 11.0062C7.36529 10.7529 7.15995 10.5479 6.90695 10.5479Z" fill="#22A9E7"/>
<path d="M9.93527 10.5479H8.92611C8.67294 10.5479 8.46777 10.7529 8.46777 11.0062C8.46777 11.2595 8.67294 11.4645 8.92611 11.4645H9.93527C10.1884 11.4645 10.3936 11.2595 10.3936 11.0062C10.3936 10.7529 10.1883 10.5479 9.93527 10.5479Z" fill="#22A9E7"/>
<path d="M12.9626 10.5479H11.9535C11.7003 10.5479 11.4951 10.7529 11.4951 11.0062C11.4951 11.2595 11.7003 11.4645 11.9535 11.4645H12.9626C13.2158 11.4645 13.421 11.2595 13.421 11.0062C13.421 10.7529 13.216 10.5479 12.9626 10.5479Z" fill="#22A9E7"/>
<path d="M6.90695 12.3809H5.89779C5.64462 12.3809 5.43945 12.5859 5.43945 12.8392C5.43945 13.0925 5.64462 13.2975 5.89779 13.2975H6.90695C7.16012 13.2975 7.36529 13.0925 7.36529 12.8392C7.36529 12.5859 7.15995 12.3809 6.90695 12.3809Z" fill="#22A9E7"/>
<path d="M9.93527 12.3809H8.92611C8.67294 12.3809 8.46777 12.5859 8.46777 12.8392C8.46777 13.0925 8.67294 13.2975 8.92611 13.2975H9.93527C10.1884 13.2975 10.3936 13.0925 10.3936 12.8392C10.3936 12.5859 10.1883 12.3809 9.93527 12.3809Z" fill="#22A9E7"/>
<path d="M12.9626 12.3809H11.9535C11.7003 12.3809 11.4951 12.5859 11.4951 12.8392C11.4951 13.0925 11.7003 13.2975 11.9535 13.2975H12.9626C13.2158 13.2975 13.421 13.0925 13.421 12.8392C13.421 12.5859 13.216 12.3809 12.9626 12.3809Z" fill="#22A9E7"/>
</g>
<defs>
<clipPath id="clip0_794_385">
<rect width="16" height="16" fill="white"/>
</clipPath>
</defs>
</svg>
