<svg width="20" height="20" viewBox="0 0 20 20" fill="none" xmlns="http://www.w3.org/2000/svg">
<path d="M0.208328 3.00439H19.7917V16.9919H0.208328V3.00439Z" fill="#F21919"/>
<path d="M0.208328 3.00439H8.79583V8.96273H0.208328V3.00439Z" fill="#063993"/>
<path d="M5.85833 6.35013L6.82916 5.98346L5.84583 5.63346C5.87499 5.74596 5.89166 5.86263 5.89166 5.98346C5.89166 6.75013 5.27083 7.37096 4.50416 7.37096C3.7375 7.37096 3.11666 6.75013 3.11666 5.98346C3.11666 5.2168 3.7375 4.59596 4.50416 4.59596C5.15 4.59596 5.69166 5.03346 5.84583 5.6293L6.5125 4.8293L5.4875 4.98763L5.67083 3.97096L4.875 4.62513L4.49583 3.6543L4.14583 4.62513L3.33333 3.97096L3.5 4.99596L2.49166 4.83346L3.13333 5.62513L2.175 5.98346L3.14166 6.3543L2.4875 7.1543L3.50416 6.98763L3.33333 7.9918L4.14166 7.35013L4.49583 8.31263L4.8625 7.3293L5.66666 8.00013L5.49583 6.97513L6.51666 7.14596L5.85833 6.35013Z" fill="white"/>
<path d="M5.66249 5.9877C5.66249 6.62936 5.14166 7.1502 4.49999 7.1502C3.85833 7.1502 3.33749 6.62936 3.33749 5.9877C3.33749 5.34603 3.85833 4.8252 4.49999 4.8252C5.14583 4.8252 5.66249 5.34603 5.66249 5.9877Z" fill="white"/>
<path d="M0.208328 3.00439H19.7917V16.9919H0.208328V3.00439Z" fill="#F21919"/>
<path d="M0.208328 3.00439H8.79583V8.96273H0.208328V3.00439Z" fill="#063993"/>
<path d="M5.85833 6.35013L6.82916 5.98346L5.84583 5.63346C5.87499 5.74596 5.89166 5.86263 5.89166 5.98346C5.89166 6.75013 5.27083 7.37096 4.50416 7.37096C3.7375 7.37096 3.11666 6.75013 3.11666 5.98346C3.11666 5.2168 3.7375 4.59596 4.50416 4.59596C5.15 4.59596 5.69166 5.03346 5.84583 5.6293L6.5125 4.8293L5.4875 4.98763L5.67083 3.97096L4.875 4.62513L4.49583 3.6543L4.14583 4.62513L3.33333 3.97096L3.5 4.99596L2.49166 4.83346L3.13333 5.62513L2.175 5.98346L3.14166 6.3543L2.4875 7.1543L3.50416 6.98763L3.33333 7.9918L4.14166 7.35013L4.49583 8.31263L4.8625 7.3293L5.66666 8.00013L5.49583 6.97513L6.51666 7.14596L5.85833 6.35013Z" fill="white"/>
<path d="M5.66249 5.9877C5.66249 6.62936 5.14166 7.1502 4.49999 7.1502C3.85833 7.1502 3.33749 6.62936 3.33749 5.9877C3.33749 5.34603 3.85833 4.8252 4.49999 4.8252C5.14583 4.8252 5.66249 5.34603 5.66249 5.9877Z" fill="white"/>
</svg>
