<svg width="48" height="48" viewBox="0 0 48 48" fill="none" xmlns="http://www.w3.org/2000/svg">
<path d="M33 15C31.8065 15 30.6619 14.5259 29.818 13.682C28.9741 12.8381 28.5 11.6935 28.5 10.5V3H12C10.8065 3 9.66193 3.47411 8.81802 4.31802C7.97411 5.16193 7.5 6.30653 7.5 7.5V40.5C7.5 41.6935 7.97411 42.8381 8.81802 43.682C9.66193 44.5259 10.8065 45 12 45H36C37.1935 45 38.3381 44.5259 39.182 43.682C40.0259 42.8381 40.5 41.6935 40.5 40.5V15H33ZM19.5 10.5C20.39 10.5 21.26 10.7639 22.0001 11.2584C22.7401 11.7529 23.3169 12.4557 23.6575 13.2779C23.9981 14.1002 24.0872 15.005 23.9135 15.8779C23.7399 16.7508 23.3113 17.5526 22.682 18.182C22.0526 18.8113 21.2508 19.2399 20.3779 19.4135C19.505 19.5872 18.6002 19.4981 17.7779 19.1575C16.9557 18.8169 16.2529 18.2401 15.7584 17.5001C15.2639 16.76 15 15.89 15 15C15 13.8065 15.4741 12.6619 16.318 11.818C17.1619 10.9741 18.3065 10.5 19.5 10.5ZM13.5 25.5C13.5 24.3065 13.9741 23.1619 14.818 22.318C15.6619 21.4741 16.8065 21 18 21H21C22.1935 21 23.3381 21.4741 24.182 22.318C25.0259 23.1619 25.5 24.3065 25.5 25.5V28.5C25.5 28.8978 25.342 29.2794 25.0607 29.5607C24.7794 29.842 24.3978 30 24 30H15C14.6022 30 14.2206 29.842 13.9393 29.5607C13.658 29.2794 13.5 28.8978 13.5 28.5V25.5ZM33 37.5H15C14.6022 37.5 14.2206 37.342 13.9393 37.0607C13.658 36.7794 13.5 36.3978 13.5 36C13.5 35.6022 13.658 35.2206 13.9393 34.9393C14.2206 34.658 14.6022 34.5 15 34.5H33C33.3978 34.5 33.7794 34.658 34.0607 34.9393C34.342 35.2206 34.5 35.6022 34.5 36C34.5 36.3978 34.342 36.7794 34.0607 37.0607C33.7794 37.342 33.3978 37.5 33 37.5ZM33 30H30C29.6022 30 29.2206 29.842 28.9393 29.5607C28.658 29.2794 28.5 28.8978 28.5 28.5C28.5 28.1022 28.658 27.7206 28.9393 27.4393C29.2206 27.158 29.6022 27 30 27H33C33.3978 27 33.7794 27.158 34.0607 27.4393C34.342 27.7206 34.5 28.1022 34.5 28.5C34.5 28.8978 34.342 29.2794 34.0607 29.5607C33.7794 29.842 33.3978 30 33 30ZM33 22.5H30C29.6022 22.5 29.2206 22.342 28.9393 22.0607C28.658 21.7794 28.5 21.3978 28.5 21C28.5 20.6022 28.658 20.2206 28.9393 19.9393C29.2206 19.658 29.6022 19.5 30 19.5H33C33.3978 19.5 33.7794 19.658 34.0607 19.9393C34.342 20.2206 34.5 20.6022 34.5 21C34.5 21.3978 34.342 21.7794 34.0607 22.0607C33.7794 22.342 33.3978 22.5 33 22.5Z" fill="#FF922D"/>
<path d="M33 12H39.63L31.5 3.87V10.5C31.5 10.8978 31.658 11.2794 31.9393 11.5607C32.2206 11.842 32.6022 12 33 12Z" fill="#FF922D"/>
</svg>
