<svg width="44" height="44" viewBox="0 0 44 44" fill="none" xmlns="http://www.w3.org/2000/svg">
<path d="M40.7048 21.9789C40.7048 23.545 38.191 24.7599 37.805 26.2043C37.4055 27.6988 38.9632 30.0055 38.2062 31.3139C37.4382 32.6413 34.6548 32.4404 33.5776 33.5176C32.5004 34.5948 32.7012 37.3783 31.3739 38.1462C30.0654 38.9033 27.7588 37.3455 26.2643 37.745C24.8199 38.131 23.605 40.6448 22.0389 40.6448C20.4728 40.6448 19.2579 38.131 17.8135 37.745C16.319 37.3455 14.0123 38.9032 12.7038 38.1462C11.3765 37.3782 11.5774 34.5947 10.5002 33.5175C9.42301 32.4403 6.63953 32.6412 5.87158 31.3139C5.11454 30.0054 6.67226 27.6988 6.27281 26.2043C5.88676 24.7599 3.373 23.545 3.373 21.9789C3.373 20.4128 5.88676 19.1979 6.27282 17.7535C6.67227 16.259 5.11455 13.9523 5.87161 12.6438C6.63956 11.3165 9.42304 11.5174 10.5002 10.4402C11.5774 9.363 11.3766 6.57952 12.7039 5.81157C14.0124 5.05452 16.319 6.61225 17.8135 6.2128C19.2579 5.82674 20.4728 3.31299 22.0389 3.31299C23.605 3.31299 24.8199 5.82675 26.2643 6.21281C27.7588 6.61226 30.0655 5.05454 31.374 5.8116C32.7013 6.57955 32.5004 9.36303 33.5776 10.4402C34.6548 11.5174 37.4383 11.3166 38.2062 12.6439C38.9633 13.9524 37.4055 16.259 37.805 17.7535C38.191 19.1979 40.7048 20.4128 40.7048 21.9789Z" fill="#36ABDF"/>
<path d="M12.0192 25.8392H10.5575C10.3311 25.8392 10.218 25.7261 10.218 25.4998V19.389C10.218 19.1627 10.3311 19.0496 10.5575 19.0496H14.7633C14.9896 19.0496 15.1028 19.1627 15.1028 19.389V20.5112C15.1028 20.7376 14.9896 20.8507 14.7633 20.8507H12.3586V21.8314H13.9995C14.2258 21.8314 14.339 21.9446 14.339 22.1709V23.3025C14.339 23.5288 14.2258 23.642 13.9995 23.642H12.3586V25.4998C12.3586 25.7261 12.2455 25.8392 12.0192 25.8392Z" fill="white"/>
<path d="M17.8375 25.8392H16.3852C16.1589 25.8392 16.0458 25.7261 16.0458 25.4998V19.389C16.0458 19.1627 16.1589 19.0496 16.3852 19.0496H19.5255C19.997 19.0496 20.3678 19.1156 20.6382 19.2476C20.9085 19.3796 21.1003 19.5635 21.2135 19.7992C21.3267 20.035 21.3832 20.3101 21.3832 20.6244V21.0582C21.3832 21.3222 21.3455 21.5454 21.27 21.7277C21.1946 21.9101 21.0563 22.0452 20.8551 22.1332C21.2008 22.1709 21.4775 22.3093 21.685 22.5481C21.8924 22.7871 21.9962 23.1045 21.9962 23.5006V25.4998C21.9962 25.7261 21.883 25.8392 21.6567 25.8392H20.195C19.9687 25.8392 19.8556 25.7261 19.8556 25.4998V24.0569C19.8556 23.9124 19.8287 23.8086 19.7754 23.7457C19.7219 23.683 19.6292 23.6514 19.4972 23.6514H18.177V25.4998C18.177 25.7261 18.0638 25.8392 17.8375 25.8392ZM18.177 20.747V21.954H18.8843C19.0476 21.954 19.1577 21.9116 19.2143 21.8267C19.2709 21.7419 19.2992 21.6366 19.2992 21.5108V21.1902C19.2992 21.0645 19.2709 20.9592 19.2143 20.8743C19.1577 20.7894 19.0476 20.747 18.8843 20.747L18.177 20.747Z" fill="white"/>
<path d="M27.7674 25.8392H23.3918C23.1655 25.8392 23.0523 25.7261 23.0523 25.4998V19.389C23.0523 19.1627 23.1655 19.0496 23.3918 19.0496H27.7674C27.9937 19.0496 28.1069 19.1627 28.1069 19.389V20.4924C28.1069 20.7187 27.9937 20.8319 27.7674 20.8319H25.1647V21.558H27.0035C27.2298 21.558 27.343 21.6711 27.343 21.8975V22.9065C27.343 23.1328 27.2298 23.2459 27.0035 23.2459H25.1647V24.0569H27.7674C27.9937 24.0569 28.1069 24.1701 28.1069 24.3964V25.4998C28.1069 25.7261 27.9937 25.8392 27.7674 25.8392Z" fill="white"/>
<path d="M33.9346 25.8392H29.559C29.3327 25.8392 29.2196 25.7261 29.2196 25.4998V19.389C29.2196 19.1627 29.3327 19.0496 29.559 19.0496H33.9346C34.1609 19.0496 34.2741 19.1627 34.2741 19.389V20.4924C34.2741 20.7187 34.1609 20.8319 33.9346 20.8319H31.3319V21.558H33.1708C33.3971 21.558 33.5102 21.6711 33.5102 21.8975V22.9065C33.5102 23.1328 33.3971 23.2459 33.1708 23.2459H31.3319V24.0569H33.9346C34.1609 24.0569 34.2741 24.1701 34.2741 24.3964V25.4998C34.2741 25.7261 34.1609 25.8392 33.9346 25.8392Z" fill="white"/>
</svg>
