<svg width="50" height="50" viewBox="0 0 50 50" fill="none" xmlns="http://www.w3.org/2000/svg">
<path d="M7.42188 32.3242H1.46484C0.655176 32.3242 0 31.669 0 30.8594V4.49219C0 3.68252 0.655176 3.02734 1.46484 3.02734H36.7188C37.5284 3.02734 38.1836 3.68252 38.1836 4.49219V10.3516C38.1836 11.1612 37.5284 11.8164 36.7188 11.8164H14.7461V19.1406C14.7461 19.9503 14.0909 20.6055 13.2812 20.6055H8.88672V30.8594C8.88672 31.669 8.23154 32.3242 7.42188 32.3242Z" fill="#FFA857"/>
<path d="M36.7188 3.02734H25V11.8164H36.7188C37.5284 11.8164 38.1836 11.1612 38.1836 10.3516V4.49219C38.1836 3.68252 37.5284 3.02734 36.7188 3.02734Z" fill="#FF922D"/>
<path d="M48.5352 38.1836H42.5781C41.7685 38.1836 41.1133 37.5284 41.1133 36.7188V20.6055H13.2812C12.4716 20.6055 11.8164 19.9503 11.8164 19.1406V10.3516C11.8164 9.54189 12.4716 8.88672 13.2812 8.88672H48.5352C49.3448 8.88672 50 9.54189 50 10.3516V36.7188C50 37.5284 49.3448 38.1836 48.5352 38.1836Z" fill="#A9C5C5"/>
<path d="M48.5352 8.88672H25V20.6055H41.1133V36.7188C41.1133 37.5284 41.7685 38.1836 42.5781 38.1836H48.5352C49.3448 38.1836 50 37.5284 50 36.7188V10.3516C50 9.54189 49.3448 8.88672 48.5352 8.88672Z" fill="#D4EBEB"/>
<path d="M42.5781 17.6758H7.42188C6.60146 17.6758 5.95703 18.3202 5.95703 19.1406V45.5078C5.95703 45.918 6.13281 46.2695 6.36719 46.5625L16.2109 42.5781H27.9297L43.6328 46.5625C43.8672 46.2695 44.043 45.918 44.043 45.5078V19.1406C44.043 18.3202 43.3985 17.6758 42.5781 17.6758Z" fill="#0F7EB0"/>
<path d="M42.5781 17.6758H25V42.5781H27.9297L43.6328 46.5625C43.8672 46.2695 44.043 45.918 44.043 45.5078V19.1406C44.043 18.3202 43.3985 17.6758 42.5781 17.6758Z" fill="#016B9B"/>
<path d="M43.6328 46.5631C43.3398 46.7975 42.9883 46.9733 42.5781 46.9733H7.42188C7.01172 46.9733 6.66016 46.7975 6.36719 46.5631L15.1751 37.7552C15.7472 37.1832 16.6746 37.1832 17.2467 37.7552L18.1048 38.6133C18.6769 39.1854 19.6043 39.1854 20.1764 38.6133L26.8938 31.8958C27.4659 31.3238 28.3934 31.3238 28.9654 31.8958L43.6328 46.5631Z" fill="#ADE65C"/>
<path d="M16.2109 32.3242C13.7877 32.3242 11.8164 30.3529 11.8164 27.9297C11.8164 25.5064 13.7877 23.5352 16.2109 23.5352C18.6342 23.5352 20.6055 25.5064 20.6055 27.9297C20.6055 30.3529 18.6342 32.3242 16.2109 32.3242Z" fill="#FFA857"/>
<path d="M26.8938 31.8958L25 33.7896V46.9734H42.5781C42.9883 46.9734 43.3398 46.7976 43.6328 46.5633L28.9655 31.8958C28.3934 31.3238 27.466 31.3238 26.8938 31.8958Z" fill="#7ACC52"/>
</svg>
