<svg width="15" height="16" viewBox="0 0 15 16" fill="none" xmlns="http://www.w3.org/2000/svg">
<path d="M13.7339 11.1431V7.2501L13.845 7.18541C14.0808 7.04853 14.2214 6.80432 14.2214 6.53197C14.2214 6.25963 14.0808 6.01494 13.845 5.87807L8.14641 2.56775C7.66688 2.28838 7.07016 2.28885 6.59063 2.56775L0.891562 5.87854C0.65625 6.01541 0.515625 6.25963 0.515625 6.53197C0.515625 6.80432 0.65625 7.04854 0.891562 7.18588L2.61937 8.18994V10.5238C2.61937 11.0657 2.91094 11.5696 3.37969 11.8401L5.75813 13.2112C6.25453 13.4971 6.81141 13.6406 7.36828 13.6406C7.92516 13.6406 8.48156 13.4976 8.97844 13.2112L11.3564 11.8401C11.8256 11.5701 12.1172 11.0657 12.1172 10.5238V8.18947L12.8902 7.74041V11.1431C12.6919 11.2781 12.5616 11.5054 12.5616 11.7637C12.5616 12.1781 12.8977 12.5142 13.312 12.5142C13.7264 12.5142 14.0625 12.1781 14.0625 11.7637C14.0625 11.5059 13.9322 11.2785 13.7339 11.1431ZM11.2739 10.5234H11.2734C11.2734 10.7643 11.1445 10.9884 10.9355 11.1084L8.5575 12.4795C7.82438 12.9018 6.91266 12.9018 6.18 12.4795L3.80156 11.1084C3.59297 10.9884 3.46359 10.7643 3.46359 10.5234V8.67979L6.59063 10.4967C6.83063 10.6359 7.09969 10.7057 7.36875 10.7057C7.63781 10.7057 7.90687 10.6363 8.14687 10.4967L11.2739 8.67979V10.5234ZM7.72266 9.76729C7.50422 9.89432 7.23281 9.89432 7.01438 9.76729L1.44609 6.53197L7.01391 3.29666C7.23234 3.16963 7.50375 3.16963 7.72219 3.29666L13.2905 6.5315L7.72266 9.76729Z" fill="#979797"/>
</svg>
