<svg width="15" height="16" viewBox="0 0 15 16" fill="none" xmlns="http://www.w3.org/2000/svg">
<path d="M13.7339 11.1436V7.25059L13.845 7.1859C14.0808 7.04902 14.2214 6.8048 14.2214 6.53246C14.2214 6.26012 14.0808 6.01543 13.845 5.87855L8.14641 2.56824C7.66688 2.28887 7.07016 2.28934 6.59063 2.56824L0.891562 5.87902C0.65625 6.0159 0.515625 6.26012 0.515625 6.53246C0.515625 6.8048 0.65625 7.04902 0.891562 7.18637L2.61937 8.19043V10.5243C2.61937 11.0662 2.91094 11.5701 3.37969 11.8406L5.75813 13.2117C6.25453 13.4976 6.81141 13.6411 7.36828 13.6411C7.92516 13.6411 8.48156 13.4981 8.97844 13.2117L11.3564 11.8406C11.8256 11.5706 12.1172 11.0662 12.1172 10.5243V8.18996L12.8902 7.7409V11.1436C12.6919 11.2786 12.5616 11.5059 12.5616 11.7642C12.5616 12.1786 12.8977 12.5146 13.312 12.5146C13.7264 12.5146 14.0625 12.1786 14.0625 11.7642C14.0625 11.5064 13.9322 11.279 13.7339 11.1436ZM11.2739 10.5239H11.2734C11.2734 10.7648 11.1445 10.9889 10.9355 11.1089L8.5575 12.48C7.82438 12.9023 6.91266 12.9023 6.18 12.48L3.80156 11.1089C3.59297 10.9889 3.46359 10.7648 3.46359 10.5239V8.68027L6.59063 10.4971C6.83063 10.6364 7.09969 10.7062 7.36875 10.7062C7.63781 10.7062 7.90687 10.6368 8.14687 10.4971L11.2739 8.68027V10.5239ZM7.72266 9.76777C7.50422 9.8948 7.23281 9.8948 7.01438 9.76777L1.44609 6.53246L7.01391 3.29715C7.23234 3.17012 7.50375 3.17012 7.72219 3.29715L13.2905 6.53199L7.72266 9.76777Z" fill="#979797"/>
</svg>
