<svg width="15" height="16" viewBox="0 0 15 16" fill="none" xmlns="http://www.w3.org/2000/svg">
<path d="M7.43768 7.47545C7.89578 7.47545 8.34359 7.3396 8.72448 7.08509C9.10537 6.83057 9.40223 6.46882 9.57751 6.04558C9.7528 5.62234 9.79864 5.15663 9.70923 4.70734C9.61983 4.25805 9.39919 3.84536 9.07524 3.52147C8.75128 3.19757 8.33855 2.97702 7.88924 2.88771C7.43993 2.79839 6.97422 2.84433 6.55102 3.0197C6.12782 3.19507 5.76613 3.492 5.51169 3.87294C5.25725 4.25389 5.12149 4.70173 5.12158 5.15983C5.12233 5.77382 5.3666 6.36245 5.8008 6.79656C6.23501 7.23068 6.82368 7.47483 7.43768 7.47545ZM7.43768 3.78123C7.71034 3.78123 7.97687 3.86208 8.20358 4.01357C8.43029 4.16505 8.60699 4.38036 8.71133 4.63226C8.81567 4.88417 8.84297 5.16136 8.78978 5.42878C8.73659 5.6962 8.60529 5.94184 8.41249 6.13464C8.21969 6.32744 7.97405 6.45874 7.70663 6.51193C7.43921 6.56512 7.16202 6.53782 6.91011 6.43348C6.65821 6.32914 6.4429 6.15244 6.29142 5.92573C6.13994 5.69902 6.05908 5.43249 6.05908 5.15983C6.05958 4.79435 6.20498 4.44399 6.46341 4.18556C6.72184 3.92713 7.0722 3.78173 7.43768 3.78123Z" fill="#979797"/>
<path d="M3.06226 8.83692C3.41455 8.83692 3.75894 8.73245 4.05187 8.53672C4.34479 8.34099 4.5731 8.0628 4.70792 7.73732C4.84273 7.41184 4.87801 7.05369 4.80928 6.70816C4.74055 6.36263 4.5709 6.04524 4.32179 5.79613C4.07268 5.54702 3.75529 5.37737 3.40976 5.30864C3.06423 5.23991 2.70608 5.27519 2.3806 5.41C2.05512 5.54482 1.77693 5.77313 1.5812 6.06606C1.38547 6.35898 1.28101 6.70337 1.28101 7.05566C1.28101 7.52808 1.46867 7.98115 1.80272 8.3152C2.13677 8.64925 2.58984 8.83692 3.06226 8.83692ZM3.06226 6.21192C3.22913 6.21192 3.39226 6.2614 3.53102 6.35411C3.66977 6.44682 3.77792 6.5786 3.84178 6.73278C3.90564 6.88695 3.92235 7.0566 3.88979 7.22027C3.85724 7.38394 3.77688 7.53429 3.65888 7.65229C3.54088 7.77029 3.39053 7.85065 3.22686 7.8832C3.06319 7.91576 2.89354 7.89905 2.73937 7.83519C2.58519 7.77133 2.45342 7.66318 2.3607 7.52443C2.26799 7.38567 2.21851 7.22254 2.21851 7.05566C2.21851 6.83189 2.3074 6.61728 2.46563 6.45904C2.62387 6.30081 2.83848 6.21192 3.06226 6.21192Z" fill="#979797"/>
<path d="M11.8125 8.83692C12.1648 8.83692 12.5092 8.73245 12.8021 8.53672C13.095 8.34099 13.3233 8.0628 13.4582 7.73732C13.593 7.41184 13.6283 7.05369 13.5595 6.70816C13.4908 6.36263 13.3211 6.04524 13.072 5.79613C12.8229 5.54702 12.5055 5.37737 12.16 5.30864C11.8145 5.23991 11.4563 5.27519 11.1308 5.41C10.8054 5.54482 10.5272 5.77313 10.3314 6.06606C10.1357 6.35898 10.0312 6.70337 10.0312 7.05566C10.0312 7.52808 10.2189 7.98115 10.553 8.3152C10.887 8.64925 11.3401 8.83692 11.8125 8.83692ZM11.8125 6.21192C11.9794 6.21192 12.1425 6.2614 12.2813 6.35411C12.42 6.44682 12.5282 6.5786 12.592 6.73278C12.6559 6.88695 12.6726 7.0566 12.64 7.22027C12.6075 7.38394 12.5271 7.53429 12.4091 7.65229C12.2911 7.77029 12.1408 7.85065 11.9771 7.8832C11.8134 7.91576 11.6438 7.89905 11.4896 7.83519C11.3354 7.77133 11.2037 7.66318 11.1109 7.52443C11.0182 7.38567 10.9687 7.22254 10.9687 7.05566C10.9687 6.83189 11.0576 6.61728 11.2159 6.45904C11.3741 6.30081 11.5887 6.21192 11.8125 6.21192Z" fill="#979797"/>
<path d="M11.8749 9.77717C11.464 9.77989 11.0602 9.8851 10.7002 10.0833C10.358 9.54143 9.88626 9.09332 9.32758 8.77932C8.76891 8.46533 8.14086 8.29533 7.50008 8.28467C6.8593 8.29533 6.23125 8.46533 5.67258 8.77932C5.1139 9.09332 4.64217 9.54143 4.29992 10.0833C3.93992 9.8851 3.53617 9.77989 3.12524 9.77717C2.38784 9.81315 1.69463 10.1394 1.19694 10.6847C0.699247 11.23 0.437496 11.95 0.46883 12.6876C0.46883 12.812 0.518216 12.9312 0.606124 13.0191C0.694031 13.107 0.81326 13.1564 0.93758 13.1564C1.0619 13.1564 1.18113 13.107 1.26904 13.0191C1.35694 12.9312 1.40633 12.812 1.40633 12.6876C1.37561 12.1988 1.53883 11.7175 1.8606 11.3481C2.18237 10.9788 2.63676 10.7512 3.12524 10.7147C3.38427 10.7167 3.63859 10.7842 3.86446 10.9111C3.64354 11.4678 3.53044 12.0615 3.53117 12.6604C3.53117 12.7848 3.58056 12.904 3.66847 12.9919C3.75638 13.0798 3.8756 13.1292 3.99992 13.1292C4.12424 13.1292 4.24347 13.0798 4.33138 12.9919C4.41929 12.904 4.46867 12.7848 4.46867 12.6604C4.46867 10.7644 5.82805 9.22217 7.50008 9.22217C9.17211 9.22217 10.5315 10.7644 10.5315 12.6604C10.5315 12.7848 10.5809 12.904 10.6688 12.9919C10.7567 13.0798 10.8759 13.1292 11.0002 13.1292C11.1246 13.1292 11.2438 13.0798 11.3317 12.9919C11.4196 12.904 11.469 12.7848 11.469 12.6604C11.4697 12.0615 11.3566 11.4678 11.1357 10.9111C11.3616 10.7842 11.6159 10.7167 11.8749 10.7147C12.3634 10.7512 12.8178 10.9788 13.1396 11.3481C13.4613 11.7175 13.6246 12.1988 13.5938 12.6876C13.5938 12.812 13.6432 12.9312 13.7311 13.0191C13.819 13.107 13.9383 13.1564 14.0626 13.1564C14.1869 13.1564 14.3061 13.107 14.394 13.0191C14.4819 12.9312 14.5313 12.812 14.5313 12.6876C14.5627 11.95 14.3009 11.23 13.8032 10.6847C13.3055 10.1394 12.6123 9.81315 11.8749 9.77717Z" fill="#979797"/>
</svg>
