<svg width="16" height="17" viewBox="0 0 16 17" fill="none" xmlns="http://www.w3.org/2000/svg">
<path d="M7.93339 7.94051C8.42203 7.94051 8.8997 7.79561 9.30598 7.52412C9.71226 7.25264 10.0289 6.86677 10.2159 6.41532C10.4029 5.96386 10.4517 5.4671 10.3564 4.98786C10.261 4.50861 10.0257 4.06841 9.68012 3.72293C9.33457 3.37744 8.89432 3.14219 8.41506 3.04692C7.93579 2.95165 7.43904 3.00065 6.98762 3.18771C6.53621 3.37477 6.1504 3.6915 5.879 4.09784C5.6076 4.50418 5.46279 4.98187 5.46289 5.47051C5.46368 6.12544 5.72424 6.75331 6.18739 7.21637C6.65054 7.67942 7.27846 7.93985 7.93339 7.94051ZM7.93339 4.00001C8.22423 4.00001 8.50854 4.08626 8.75036 4.24784C8.99218 4.40942 9.18066 4.63908 9.29196 4.90778C9.40325 5.17648 9.43238 5.47214 9.37564 5.75739C9.3189 6.04264 9.17885 6.30466 8.97319 6.51031C8.76754 6.71597 8.50552 6.85602 8.22027 6.91276C7.93502 6.9695 7.63935 6.94038 7.37065 6.82908C7.10196 6.71778 6.8723 6.5293 6.71071 6.28748C6.54913 6.04566 6.46289 5.76135 6.46289 5.47051C6.46342 5.08067 6.61852 4.70695 6.89417 4.4313C7.16983 4.15564 7.54355 4.00054 7.93339 4.00001Z" fill="#0F7EB0"/>
<path d="M3.2667 9.39229C3.64248 9.39229 4.00983 9.28085 4.32228 9.07208C4.63474 8.8633 4.87826 8.56656 5.02207 8.21938C5.16588 7.87221 5.2035 7.49018 5.13019 7.12161C5.05688 6.75305 4.87592 6.4145 4.6102 6.14878C4.34448 5.88306 4.00593 5.70211 3.63737 5.62879C3.26881 5.55548 2.88678 5.59311 2.5396 5.73691C2.19242 5.88072 1.89568 6.12425 1.68691 6.4367C1.47813 6.74916 1.3667 7.1165 1.3667 7.49229C1.3667 7.9962 1.56688 8.47947 1.9232 8.83579C2.27952 9.19211 2.76279 9.39229 3.2667 9.39229ZM3.2667 6.59229C3.4447 6.59229 3.61871 6.64507 3.76671 6.74396C3.91472 6.84286 4.03007 6.98342 4.09819 7.14787C4.16631 7.31233 4.18413 7.49328 4.14941 7.66787C4.11468 7.84245 4.02896 8.00282 3.9031 8.12868C3.77723 8.25455 3.61686 8.34027 3.44228 8.37499C3.2677 8.40972 3.08674 8.3919 2.92228 8.32378C2.75783 8.25566 2.61727 8.1403 2.51838 7.9923C2.41948 7.8443 2.3667 7.67029 2.3667 7.49229C2.3667 7.25359 2.46152 7.02467 2.6303 6.85589C2.79909 6.68711 3.028 6.59229 3.2667 6.59229Z" fill="#0F7EB0"/>
<path d="M12.6002 9.39229C12.976 9.39229 13.3433 9.28085 13.6558 9.07208C13.9682 8.8633 14.2118 8.56656 14.3556 8.21938C14.4994 7.87221 14.537 7.49018 14.4637 7.12161C14.3904 6.75305 14.2094 6.4145 13.9437 6.14878C13.678 5.88306 13.3394 5.70211 12.9709 5.62879C12.6023 5.55548 12.2203 5.59311 11.8731 5.73691C11.5259 5.88072 11.2292 6.12425 11.0204 6.4367C10.8116 6.74916 10.7002 7.1165 10.7002 7.49229C10.7002 7.9962 10.9004 8.47947 11.2567 8.83579C11.613 9.19211 12.0963 9.39229 12.6002 9.39229ZM12.6002 6.59229C12.7782 6.59229 12.9522 6.64507 13.1002 6.74396C13.2482 6.84286 13.3636 6.98342 13.4317 7.14787C13.4998 7.31233 13.5176 7.49328 13.4829 7.66787C13.4482 7.84245 13.3625 8.00282 13.2366 8.12868C13.1107 8.25455 12.9504 8.34027 12.7758 8.37499C12.6012 8.40972 12.4202 8.3919 12.2558 8.32378C12.0913 8.25566 11.9508 8.1403 11.8519 7.9923C11.753 7.8443 11.7002 7.67029 11.7002 7.49229C11.7002 7.25359 11.795 7.02467 11.9638 6.85589C12.1326 6.68711 12.3615 6.59229 12.6002 6.59229Z" fill="#0F7EB0"/>
<path d="M12.6663 10.3957C12.2279 10.3986 11.7973 10.5108 11.4133 10.7222C11.0482 10.1443 10.545 9.66627 9.94909 9.33134C9.35317 8.99641 8.68326 8.81509 7.99976 8.80371C7.31626 8.81509 6.64635 8.99641 6.05043 9.33134C5.4545 9.66627 4.95132 10.1443 4.58626 10.7222C4.20226 10.5108 3.77158 10.3986 3.33326 10.3957C2.54671 10.4341 1.80728 10.7821 1.27641 11.3637C0.745538 11.9454 0.466336 12.7134 0.49976 13.5002C0.49976 13.6328 0.552438 13.76 0.646206 13.8538C0.739974 13.9475 0.867151 14.0002 0.99976 14.0002C1.13237 14.0002 1.25954 13.9475 1.35331 13.8538C1.44708 13.76 1.49976 13.6328 1.49976 13.5002C1.46699 12.9787 1.64109 12.4654 1.98431 12.0714C2.32754 11.6775 2.81222 11.4347 3.33326 11.3957C3.60957 11.3978 3.88084 11.4699 4.12176 11.6052C3.88612 12.1991 3.76547 12.8323 3.76626 13.4712C3.76626 13.6038 3.81894 13.731 3.91271 13.8248C4.00647 13.9185 4.13365 13.9712 4.26626 13.9712C4.39887 13.9712 4.52604 13.9185 4.61981 13.8248C4.71358 13.731 4.76626 13.6038 4.76626 13.4712C4.76626 11.4487 6.21626 9.80371 7.99976 9.80371C9.78326 9.80371 11.2333 11.4487 11.2333 13.4712C11.2333 13.6038 11.2859 13.731 11.3797 13.8248C11.4735 13.9185 11.6007 13.9712 11.7333 13.9712C11.8659 13.9712 11.993 13.9185 12.0868 13.8248C12.1806 13.731 12.2333 13.6038 12.2333 13.4712C12.234 12.8323 12.1134 12.1991 11.8778 11.6052C12.1187 11.4699 12.39 11.3978 12.6663 11.3957C13.1873 11.4347 13.672 11.6775 14.0152 12.0714C14.3584 12.4654 14.5325 12.9787 14.4998 13.5002C14.4998 13.6328 14.5524 13.76 14.6462 13.8538C14.74 13.9475 14.8672 14.0002 14.9998 14.0002C15.1324 14.0002 15.2595 13.9475 15.3533 13.8538C15.4471 13.76 15.4998 13.6328 15.4998 13.5002C15.5332 12.7134 15.254 11.9454 14.7231 11.3637C14.1922 10.7821 13.4528 10.4341 12.6663 10.3957Z" fill="#0F7EB0"/>
</svg>
