<svg width="48" height="48" viewBox="0 0 48 48" fill="none" xmlns="http://www.w3.org/2000/svg">
<g clip-path="url(#clip0_2229_36657)">
<path d="M24.6096 45.6562C24.6096 46.9507 25.6588 48 26.9531 48C28.2474 48 29.2967 46.9507 29.2967 45.6562V35.2898C29.2967 34.5325 29.8785 33.881 30.6348 33.8453C31.4422 33.8073 32.1089 34.4508 32.1089 35.25V45.6562C32.1089 46.9507 33.1582 48 34.4525 48C35.7468 48 36.796 46.9507 36.796 45.6562V31.0312H24.6096V45.6562Z" fill="#36ABDF"/>
<path d="M47.483 10.7116L47.4474 10.657C46.5672 9.30731 44.809 8.883 43.4174 9.64313L33.44 15.0938H15.2354C15.2354 12.6817 15.2354 2.7255 15.2354 1.40625C15.2354 0.629625 14.6059 0 13.8292 0H1.40616C0.629531 0 0 0.629625 0 1.40625V9.9375C0 10.7141 0.629531 11.3438 1.40616 11.3438H12.4232V46.5938C12.4232 47.3704 13.0527 48 13.8293 48C14.6059 48 15.2355 47.3704 15.2355 46.5938V21.6562H24.6097V28.2188H36.7961V21.4416C37.934 20.7002 43.3643 17.1623 46.5227 15.105C48.0469 14.1121 48.4357 12.1726 47.483 10.7116Z" fill="#36ABDF"/>
<path d="M30.656 14.1562C33.7623 14.1562 36.2805 11.6379 36.2805 8.53125C36.2805 5.42465 33.7623 2.90625 30.656 2.90625C27.5496 2.90625 25.0314 5.42465 25.0314 8.53125C25.0314 11.6379 27.5496 14.1562 30.656 14.1562Z" fill="#36ABDF"/>
</g>
<defs>
<clipPath id="clip0_2229_36657">
<rect width="48" height="48" fill="white"/>
</clipPath>
</defs>
</svg>
