<svg width="16" height="17" viewBox="0 0 16 17" fill="none" xmlns="http://www.w3.org/2000/svg">
<path d="M5.52938 10.7766C5.87728 10.436 6.09375 9.96166 6.09375 9.4375C6.09375 8.40363 5.25262 7.5625 4.21875 7.5625C3.18488 7.5625 2.34375 8.40363 2.34375 9.4375C2.34375 9.96166 2.56022 10.436 2.90812 10.7766C2.28522 11.1983 1.875 11.9115 1.875 12.7188V13.6562C1.875 13.9151 2.08487 14.125 2.34375 14.125H6.09375C6.35262 14.125 6.5625 13.9151 6.5625 13.6562V12.7188C6.5625 11.9115 6.15228 11.1983 5.52938 10.7766ZM4.21875 8.5C4.73569 8.5 5.15625 8.92056 5.15625 9.4375C5.15625 9.95444 4.73569 10.375 4.21875 10.375C3.70181 10.375 3.28125 9.95444 3.28125 9.4375C3.28125 8.92056 3.70181 8.5 4.21875 8.5ZM5.625 13.1875H2.8125V12.7188C2.8125 11.9433 3.44334 11.3125 4.21875 11.3125C4.99416 11.3125 5.625 11.9433 5.625 12.7188V13.1875Z" fill="#0F7EB0"/>
<path d="M10.8438 10.375C11.1026 10.375 11.3125 10.1651 11.3125 9.90625C11.3125 9.64737 11.1026 9.4375 10.8438 9.4375C10.5849 9.4375 10.375 9.64737 10.375 9.90625C10.375 10.1651 10.5849 10.375 10.8438 10.375Z" fill="#0F7EB0"/>
<path d="M12.7188 10.375C12.9776 10.375 13.1875 10.1651 13.1875 9.90625C13.1875 9.64737 12.9776 9.4375 12.7188 9.4375C12.4599 9.4375 12.25 9.64737 12.25 9.90625C12.25 10.1651 12.4599 10.375 12.7188 10.375Z" fill="#0F7EB0"/>
<path d="M8.96875 10.375C9.22763 10.375 9.4375 10.1651 9.4375 9.90625C9.4375 9.64737 9.22763 9.4375 8.96875 9.4375C8.70987 9.4375 8.5 9.64737 8.5 9.90625C8.5 10.1651 8.70987 10.375 8.96875 10.375Z" fill="#0F7EB0"/>
<path d="M12.7188 11.3125H8.96875C8.70987 11.3125 8.5 11.5224 8.5 11.7812C8.5 12.0401 8.70987 12.25 8.96875 12.25H12.7188C12.9776 12.25 13.1875 12.0401 13.1875 11.7812C13.1875 11.5224 12.9776 11.3125 12.7188 11.3125Z" fill="#0F7EB0"/>
<path d="M12.7188 13.1875H8.96875C8.70987 13.1875 8.5 13.3974 8.5 13.6562C8.5 13.9151 8.70987 14.125 8.96875 14.125H12.7188C12.9776 14.125 13.1875 13.9151 13.1875 13.6562C13.1875 13.3974 12.9776 13.1875 12.7188 13.1875Z" fill="#0F7EB0"/>
<path d="M13.9877 3.48107C13.8047 3.29798 13.5079 3.29798 13.3248 3.48104L11.7813 5.02461L11.1752 4.41854C10.9922 4.23548 10.6954 4.23548 10.5123 4.41854C10.3292 4.60161 10.3292 4.89839 10.5123 5.08145L11.4498 6.01895C11.5413 6.11051 11.6613 6.15626 11.7813 6.15626C11.9012 6.15626 12.0212 6.11051 12.1127 6.01898L13.9877 4.14398C14.1708 3.96092 14.1708 3.66414 13.9877 3.48107Z" fill="#0F7EB0"/>
<path d="M12.25 1C10.1823 1 8.5 2.68225 8.5 4.75H1.40625C0.630844 4.75 0 5.38084 0 6.15625V14.5938C0 15.3692 0.630844 16 1.40625 16H13.6562C14.4317 16 15.0625 15.3692 15.0625 14.5938V7.22747C15.6456 6.56628 16 5.69881 16 4.75C16 2.68225 14.3177 1 12.25 1ZM14.125 14.5938C14.125 14.8522 13.9147 15.0625 13.6562 15.0625H1.40625C1.14778 15.0625 0.9375 14.8522 0.9375 14.5938V6.15625C0.9375 5.89778 1.14778 5.6875 1.40625 5.6875H8.61866C9.036 7.30309 10.5058 8.5 12.25 8.5C12.9326 8.5 13.5731 8.31659 14.125 7.99659V14.5938ZM12.25 7.5625C10.6992 7.5625 9.4375 6.30081 9.4375 4.75C9.4375 3.19919 10.6992 1.9375 12.25 1.9375C13.8008 1.9375 15.0625 3.19919 15.0625 4.75C15.0625 6.30081 13.8008 7.5625 12.25 7.5625Z" fill="#0F7EB0"/>
</svg>
