<svg width="16" height="17" viewBox="0 0 16 17" fill="none" xmlns="http://www.w3.org/2000/svg">
<g clip-path="url(#clip0_1631_8088)">
<path d="M1.16667 16.5H2.83333C3.47667 16.5 4 15.9767 4 15.3333V15.0893C5.008 15.6027 7.29733 16.5 11.0207 16.5H12.0873C13.6327 16.5 14.9447 15.3947 15.2067 13.872L15.9533 9.53867C16.112 8.614 15.8567 7.674 15.254 6.958C14.652 6.24333 13.7693 5.83333 12.834 5.83333H9.81C9.99867 5.32667 10.1873 4.588 10.1873 3.66667C10.1873 1.162 8.77 0.5 8.02067 0.5C6.63667 0.5 6.52067 1.79067 6.52067 3C6.52067 4.476 4.86533 5.70267 3.99133 6.248C3.94667 5.64533 3.44733 5.16667 2.83333 5.16667H1.16667C0.523333 5.16667 0 5.69 0 6.33333V15.3333C0 15.9767 0.523333 16.5 1.16667 16.5ZM7.52067 3C7.52067 1.5 7.77467 1.5 8.02067 1.5C8.49 1.5 9.18733 2.07733 9.18733 3.66667C9.18733 5.144 8.60867 6.04933 8.60467 6.056C8.50267 6.20933 8.49267 6.40667 8.58 6.56933C8.66667 6.732 8.83667 6.83333 9.02067 6.83333H12.834C13.474 6.83333 14.0773 7.11333 14.4893 7.602C14.902 8.09133 15.0767 8.73533 14.968 9.368L14.2213 13.7013C14.042 14.7427 13.1447 15.4993 12.0873 15.4993H11.0207C6.48533 15.5 4.21333 14.0813 4 13.9407V7.40067C4.55533 7.106 7.52067 5.41933 7.52067 3ZM1 6.33333C1 6.24133 1.07467 6.16667 1.16667 6.16667H2.83333C2.92533 6.16667 3 6.24133 3 6.33333V15.3333C3 15.424 2.924 15.5 2.83333 15.5H1.16667C1.07467 15.5 1 15.4253 1 15.3333V6.33333Z" fill="#39B5EA"/>
</g>
<defs>
<clipPath id="clip0_1631_8088">
<rect width="16" height="16" fill="white" transform="translate(0 0.5)"/>
</clipPath>
</defs>
</svg>
