<svg width="44" height="44" viewBox="0 0 44 44" fill="none" xmlns="http://www.w3.org/2000/svg">
<path fill-rule="evenodd" clip-rule="evenodd" d="M11 17.9629V13.1999C11 8.3401 14.9402 4.3999 19.8 4.3999C24.6598 4.3999 28.6 8.3401 28.6 13.1999C28.6 14.4143 27.6144 15.3999 26.4 15.3999C25.1856 15.3999 24.2 14.4143 24.2 13.1999C24.2 10.7689 22.231 8.7999 19.8 8.7999C17.369 8.7999 15.4 10.7689 15.4 13.1999V17.5999H26.4396C30.063 17.5999 33 20.5369 33 24.1603V33.0395C33 34.7797 32.3092 36.4495 31.0794 37.6793C29.8496 38.9091 28.1798 39.5999 26.4396 39.5999H15.4C14.1856 39.5999 13.2 38.6143 13.2 37.3999C13.2 34.9711 11.2288 32.9999 8.80001 32.9999C7.58561 32.9999 6.60001 32.0143 6.60001 30.7999V24.1603C6.60001 21.2937 8.43701 18.8561 11 17.9629ZM11 37.3999C11 38.6143 10.0144 39.5999 8.80001 39.5999C7.58561 39.5999 6.60001 38.6143 6.60001 37.3999C6.60001 36.1855 7.58561 35.1999 8.80001 35.1999C10.0144 35.1999 11 36.1855 11 37.3999ZM17.6 26.3999V30.7999C17.6 32.0143 18.5856 32.9999 19.8 32.9999C21.0144 32.9999 22 32.0143 22 30.7999V26.3999C22 25.1855 21.0144 24.1999 19.8 24.1999C18.5856 24.1999 17.6 25.1855 17.6 26.3999ZM33 17.5999H35.2C36.4144 17.5999 37.4 16.6143 37.4 15.3999C37.4 14.1855 36.4144 13.1999 35.2 13.1999H33C31.7856 13.1999 30.8 14.1855 30.8 15.3999C30.8 16.6143 31.7856 17.5999 33 17.5999ZM34.5554 10.3553L36.7554 8.1553C37.6134 7.2973 37.6134 5.9025 36.7554 5.0445C35.8974 4.1865 34.5026 4.1865 33.6446 5.0445L31.4446 7.2445C30.5866 8.1025 30.5866 9.4973 31.4446 10.3553C32.3026 11.2133 33.6974 11.2133 34.5554 10.3553Z" fill="#FF922D"/>
</svg>
