<svg width="16" height="17" viewBox="0 0 16 17" fill="none" xmlns="http://www.w3.org/2000/svg">
<g clip-path="url(#clip0_284_20175)">
<path fill-rule="evenodd" clip-rule="evenodd" d="M8.73248 3.52396C8.83958 3.28827 9.11747 3.18403 9.35316 3.29113C10.4247 3.77809 11.1719 4.85845 11.1719 6.11423V7.15601C11.1719 7.4149 10.9621 7.62476 10.7032 7.62476H5.29639C5.0375 7.62476 4.82764 7.4149 4.82764 7.15601V6.11426C4.82764 4.85844 5.57488 3.77812 6.64642 3.29117C6.88211 3.18406 7.16 3.2883 7.26711 3.52399C7.37421 3.75968 7.26998 4.03757 7.03429 4.14467C6.28489 4.48522 5.76514 5.23971 5.76514 6.11426V6.68726H10.2344V6.11423C10.2344 5.2397 9.71471 4.48519 8.9653 4.14464C8.72961 4.03754 8.62537 3.75965 8.73248 3.52396Z" fill="#0F7EB0"/>
<path fill-rule="evenodd" clip-rule="evenodd" d="M7.9999 1.4375C7.42043 1.4375 6.95068 1.90725 6.95068 2.48672C6.95068 3.06619 7.42043 3.53594 7.9999 3.53594C8.57937 3.53594 9.04912 3.06619 9.04912 2.48672C9.04912 1.90725 8.57937 1.4375 7.9999 1.4375ZM6.01318 2.48672C6.01318 1.38948 6.90267 0.5 7.9999 0.5C9.09714 0.5 9.98662 1.38948 9.98662 2.48672C9.98662 3.58395 9.09714 4.47344 7.9999 4.47344C6.90267 4.47344 6.01318 3.58395 6.01318 2.48672Z" fill="#0F7EB0"/>
<path fill-rule="evenodd" clip-rule="evenodd" d="M8.01416 3.73828C8.27304 3.73828 8.48291 3.94815 8.48291 4.20703V5.3925C8.48291 5.65138 8.27304 5.86125 8.01416 5.86125C7.75528 5.86125 7.54541 5.65138 7.54541 5.3925V4.20703C7.54541 3.94815 7.75528 3.73828 8.01416 3.73828Z" fill="#0F7EB0"/>
<path fill-rule="evenodd" clip-rule="evenodd" d="M6.10806 11.375C5.9621 11.375 5.84375 11.4934 5.84375 11.6393V15.2982C5.84375 15.4441 5.9621 15.5625 6.10806 15.5625H9.89194C10.0379 15.5625 10.1562 15.4442 10.1562 15.2982V11.6393C10.1562 11.4934 10.0379 11.375 9.89191 11.375H6.10806ZM4.90625 11.6393C4.90625 10.9756 5.44433 10.4375 6.10806 10.4375H9.89191C10.5557 10.4375 11.0938 10.9756 11.0938 11.6393V15.2982C11.0938 15.9619 10.5557 16.5 9.89194 16.5H6.10806C5.44433 16.5 4.90625 15.9619 4.90625 15.2982V11.6393Z" fill="#0F7EB0"/>
<path fill-rule="evenodd" clip-rule="evenodd" d="M13.2331 11.375C13.0871 11.375 12.9688 11.4934 12.9688 11.6393V15.2982C12.9688 15.4441 13.0871 15.5625 13.2331 15.5625H14.7982C14.9441 15.5625 15.0625 15.4442 15.0625 15.2982V11.6393C15.0625 11.4934 14.9442 11.375 14.7982 11.375H13.2331ZM12.0312 11.6393C12.0312 10.9756 12.5693 10.4375 13.2331 10.4375H14.7982C15.4619 10.4375 16 10.9756 16 11.6393V15.2982C16 15.9619 15.4619 16.5 14.7982 16.5H13.2331C12.5693 16.5 12.0312 15.9619 12.0312 15.2982V11.6393Z" fill="#0F7EB0"/>
<path fill-rule="evenodd" clip-rule="evenodd" d="M1.20181 11.375C1.05585 11.375 0.9375 11.4934 0.9375 11.6393V15.2982C0.9375 15.4441 1.05585 15.5625 1.20181 15.5625H2.76694C2.91288 15.5625 3.03125 15.4442 3.03125 15.2982V11.6393C3.03125 11.4934 2.91291 11.375 2.76691 11.375H1.20181ZM0 11.6393C0 10.9756 0.538085 10.4375 1.20181 10.4375H2.76691C3.43065 10.4375 3.96875 10.9756 3.96875 11.6393V15.2982C3.96875 15.9619 3.43068 16.5 2.76694 16.5H1.20181C0.538085 16.5 0 15.9619 0 15.2982V11.6393Z" fill="#0F7EB0"/>
<path fill-rule="evenodd" clip-rule="evenodd" d="M8 6.6875C8.25888 6.6875 8.46875 6.89737 8.46875 7.15625V10.9062C8.46875 11.1651 8.25888 11.375 8 11.375C7.74112 11.375 7.53125 11.1651 7.53125 10.9062V7.15625C7.53125 6.89737 7.74112 6.6875 8 6.6875Z" fill="#0F7EB0"/>
<path fill-rule="evenodd" clip-rule="evenodd" d="M1.53125 10.1282C1.53125 9.26349 2.23224 8.5625 3.09697 8.5625H12.9187C13.7834 8.5625 14.4844 9.26349 14.4844 10.1282V10.9062C14.4844 11.1651 14.2745 11.375 14.0156 11.375C13.7567 11.375 13.5469 11.1651 13.5469 10.9062V10.1282C13.5469 9.78126 13.2656 9.5 12.9187 9.5H3.09697C2.75001 9.5 2.46875 9.78126 2.46875 10.1282V10.9062C2.46875 11.1651 2.25888 11.375 2 11.375C1.74112 11.375 1.53125 11.1651 1.53125 10.9062V10.1282Z" fill="#0F7EB0"/>
</g>
<defs>
<clipPath id="clip0_284_20175">
<rect width="16" height="16" fill="white" transform="translate(0 0.5)"/>
</clipPath>
</defs>
</svg>
