<svg width="15" height="16" viewBox="0 0 15 16" fill="none" xmlns="http://www.w3.org/2000/svg">
<g clip-path="url(#clip0_568_5017)">
<path d="M7.5 9.78711C7.25768 9.78711 7.06055 9.58997 7.06055 9.34766C7.06055 9.17064 7.16587 9.01168 7.32888 8.94263C7.52566 8.85931 7.76115 8.93041 7.97514 9.13772C8.14945 9.30658 8.42766 9.30219 8.59652 9.1279C8.76542 8.95358 8.76099 8.67538 8.58671 8.50651C8.38831 8.3143 8.16776 8.17845 7.93945 8.10178V7.58984C7.93945 7.34715 7.74269 7.15039 7.5 7.15039C7.2573 7.15039 7.06055 7.34715 7.06055 7.58984V8.10462C7.03561 8.1135 7.01077 8.12287 6.98613 8.1333C6.49743 8.34028 6.18164 8.81694 6.18164 9.34766C6.18164 10.0746 6.77306 10.666 7.5 10.666C7.74231 10.666 7.93945 10.8632 7.93945 11.1055C7.93945 11.2896 7.82329 11.4557 7.65041 11.5186C7.42468 11.6008 7.16191 11.4893 6.92953 11.2126C6.77344 11.0268 6.49626 11.0027 6.3104 11.1588C6.12454 11.3149 6.10043 11.5921 6.25652 11.7779C6.49409 12.0608 6.77062 12.2547 7.06058 12.3523V12.8633C7.06058 13.106 7.25733 13.3027 7.50003 13.3027C7.74272 13.3027 7.93948 13.106 7.93948 12.8633V12.3484C7.94341 12.3471 7.94733 12.3459 7.95123 12.3445C8.46987 12.1556 8.81836 11.6576 8.81836 11.1055C8.81836 10.3785 8.22694 9.78711 7.5 9.78711Z" fill="#22A9E7"/>
<path d="M11.5699 7.09938C11.0476 6.45682 10.4505 5.94488 9.79509 5.57674C9.90243 5.44974 9.98713 5.30082 10.0418 5.13485C10.2565 4.48127 9.94295 3.7049 9.14276 3.45198L10.2645 1.49598C10.406 1.24912 10.2789 0.934707 10.006 0.855371C9.19494 0.619561 8.35184 0.5 7.5 0.5C6.64816 0.5 5.80506 0.619561 4.994 0.855371C4.72078 0.934795 4.59413 1.24941 4.73549 1.49598L5.85724 3.45201C5.06021 3.70364 4.74275 4.47887 4.95829 5.1352C5.01281 5.30073 5.09748 5.44956 5.20515 5.57662C4.54963 5.94477 3.9525 6.45676 3.43014 7.09938C2.38597 8.38397 1.78711 10.0043 1.78711 11.5449C1.78711 14.7409 4.33731 15.5 7.5 15.5C10.6649 15.5 13.2129 14.7397 13.2129 11.5449C13.2129 10.0043 12.614 8.38397 11.5699 7.09938ZM5.78602 1.56107C6.34667 1.44005 6.92104 1.37891 7.5 1.37891C8.07896 1.37891 8.65333 1.44005 9.21398 1.56107L8.24622 3.24863C7.75055 3.17943 7.2496 3.17946 6.75381 3.24866L5.78602 1.56107ZM6.07313 4.30555C6.82942 4.05746 7.62067 4.01044 8.38992 4.16422C8.39083 4.16439 8.39177 4.16457 8.39268 4.16475C8.57197 4.20072 8.75007 4.24754 8.92626 4.30534C9.15656 4.38125 9.28242 4.63036 9.20692 4.86025C9.15205 5.02675 9.00718 5.14142 8.83676 5.15999C8.39859 5.02279 7.95167 4.95312 7.5 4.95312C7.04924 4.95312 6.60319 5.0225 6.16588 5.15914C5.99282 5.14133 5.8476 5.02584 5.79319 4.86066C5.71758 4.63036 5.84344 4.38122 6.07313 4.30555ZM7.5 14.627C4.06652 14.627 2.66602 13.7299 2.66602 11.5449C2.66602 10.2224 3.20663 8.76778 4.11211 7.65377C5.06704 6.47899 6.27021 5.83203 7.5 5.83203C8.85369 5.83203 10.0377 6.60787 10.8879 7.65377C11.7934 8.76778 12.334 10.2224 12.334 11.5449C12.334 13.7299 10.9335 14.627 7.5 14.627Z" fill="#22A9E7"/>
</g>
<defs>
<clipPath id="clip0_568_5017">
<rect width="15" height="15" fill="white" transform="translate(0 0.5)"/>
</clipPath>
</defs>
</svg>
