<svg width="16" height="17" viewBox="0 0 16 17" fill="none" xmlns="http://www.w3.org/2000/svg">
<g clip-path="url(#clip0_196_3400)">
<path d="M8.00016 10.4062C7.74169 10.4062 7.53141 10.196 7.53141 9.9375C7.53141 9.74869 7.64376 9.57912 7.81763 9.50547C8.02754 9.41659 8.27872 9.49244 8.50697 9.71356C8.69291 9.89369 8.98966 9.889 9.16979 9.70309C9.34994 9.51716 9.34522 9.22041 9.15932 9.04028C8.94769 8.83525 8.71244 8.69034 8.46891 8.60856V8.0625C8.46891 7.80362 8.25904 7.59375 8.00016 7.59375C7.74129 7.59375 7.53141 7.80362 7.53141 8.0625V8.61159C7.50482 8.62106 7.47832 8.63106 7.45204 8.64219C6.93076 8.86297 6.59391 9.37141 6.59391 9.9375C6.59391 10.7129 7.22476 11.3438 8.00016 11.3438C8.25863 11.3438 8.46891 11.554 8.46891 11.8125C8.46891 12.0089 8.34501 12.1861 8.1606 12.2532C7.91982 12.3409 7.63954 12.222 7.39166 11.9268C7.22516 11.7286 6.92951 11.7028 6.73126 11.8693C6.53301 12.0358 6.50729 12.3315 6.67379 12.5297C6.92719 12.8315 7.22216 13.0384 7.53144 13.1425V13.6875C7.53144 13.9464 7.74132 14.1562 8.00019 14.1562C8.25907 14.1562 8.46894 13.9464 8.46894 13.6875V13.1383C8.47313 13.1369 8.47732 13.1356 8.48147 13.1341C9.03469 12.9326 9.40641 12.4015 9.40641 11.8125C9.40641 11.0371 8.77557 10.4062 8.00016 10.4062Z" fill="#0F7EB0"/>
<path d="M12.3412 7.53934C11.7841 6.85394 11.1472 6.30787 10.4481 5.91519C10.5626 5.77972 10.6529 5.62087 10.7113 5.44384C10.9402 4.74669 10.6058 3.91856 9.75228 3.64878L10.9488 1.56237C11.0998 1.29906 10.9642 0.963688 10.6731 0.879063C9.80794 0.627531 8.90863 0.5 8 0.5C7.09137 0.5 6.19206 0.627531 5.32694 0.879063C5.0355 0.963781 4.90041 1.29937 5.05119 1.56237L6.24772 3.64881C5.39756 3.91722 5.05894 4.74412 5.28884 5.44422C5.347 5.62078 5.43731 5.77953 5.55216 5.91506C4.85294 6.30775 4.216 6.85388 3.65881 7.53934C2.54503 8.90956 1.90625 10.6379 1.90625 12.2812C1.90625 15.6903 4.62647 16.5 8 16.5C11.3759 16.5 14.0938 15.689 14.0938 12.2812C14.0938 10.6379 13.455 8.90956 12.3412 7.53934ZM6.17175 1.63181C6.76978 1.50272 7.38244 1.4375 8 1.4375C8.61756 1.4375 9.23022 1.50272 9.82825 1.63181L8.79597 3.43187C8.26725 3.35806 7.73291 3.35809 7.20406 3.43191L6.17175 1.63181ZM6.478 4.55925C7.28472 4.29462 8.12872 4.24447 8.94925 4.4085C8.95022 4.40869 8.95122 4.40887 8.95219 4.40906C9.14344 4.44744 9.33341 4.49738 9.52134 4.55903C9.767 4.64 9.90125 4.90572 9.82072 5.15094C9.76219 5.32853 9.60766 5.45084 9.42587 5.47066C8.9585 5.32431 8.48178 5.25 8 5.25C7.51919 5.25 7.04341 5.324 6.57694 5.46975C6.39234 5.45075 6.23744 5.32756 6.17941 5.15137C6.09875 4.90572 6.233 4.63997 6.478 4.55925ZM8 15.5688C4.33763 15.5688 2.84375 14.6119 2.84375 12.2812C2.84375 10.8706 3.42041 9.31897 4.38625 8.13069C5.40484 6.87759 6.68822 6.1875 8 6.1875C9.44394 6.1875 10.7069 7.01506 11.6138 8.13069C12.5796 9.31897 13.1562 10.8706 13.1562 12.2812C13.1562 14.6119 11.6624 15.5688 8 15.5688Z" fill="#0F7EB0"/>
</g>
<defs>
<clipPath id="clip0_196_3400">
<rect width="16" height="16" fill="white" transform="translate(0 0.5)"/>
</clipPath>
</defs>
</svg>
