<svg width="20" height="20" viewBox="0 0 20 20" fill="none" xmlns="http://www.w3.org/2000/svg">
<path d="M10 4.44448C11.2273 4.44448 12.2222 3.44955 12.2222 2.22224C12.2222 0.994931 11.2273 0 10 0C8.77269 0 7.77776 0.994931 7.77776 2.22224C7.77776 3.44955 8.77269 4.44448 10 4.44448Z" fill="white"/>
<path d="M10 12.2218C11.2273 12.2218 12.2222 11.2269 12.2222 9.99958C12.2222 8.77227 11.2273 7.77734 10 7.77734C8.77269 7.77734 7.77776 8.77227 7.77776 9.99958C7.77776 11.2269 8.77269 12.2218 10 12.2218Z" fill="white"/>
<path d="M10 19.9992C11.2273 19.9992 12.2222 19.0042 12.2222 17.7769C12.2222 16.5496 11.2273 15.5547 10 15.5547C8.77269 15.5547 7.77776 16.5496 7.77776 17.7769C7.77776 19.0042 8.77269 19.9992 10 19.9992Z" fill="white"/>
</svg>
