<svg width="16" height="16" viewBox="0 0 16 16" fill="none" xmlns="http://www.w3.org/2000/svg">
<path d="M14.3531 4.46105L13.6498 3.75771L11.5384 1.64638C11.4442 1.55526 11.3179 1.5048 11.1868 1.50588C11.0557 1.50695 10.9303 1.55948 10.8375 1.65214C10.7448 1.7448 10.6921 1.87018 10.6909 2.00128C10.6897 2.13238 10.7401 2.2587 10.8311 2.35305L11.1811 2.70371L9.78111 4.10771L9.43111 3.75705L8.90444 3.23038C8.81019 3.13926 8.68391 3.0888 8.55281 3.08988C8.42171 3.09095 8.29628 3.14348 8.20353 3.23614C8.11078 3.3288 8.05814 3.45418 8.05694 3.58528C8.05574 3.71638 8.10607 3.8427 8.19711 3.93705L8.37178 4.11171L4.31311 8.16505C4.29444 8.18371 4.28178 8.20238 4.26378 8.22171C4.25844 8.22638 4.25178 8.22772 4.24644 8.23305C4.24111 8.23838 4.23244 8.25705 4.22311 8.26771C3.78303 8.68953 3.51367 9.25862 3.46644 9.86638C3.46511 10.3935 3.64945 10.9043 3.98711 11.309L1.64644 13.6464C1.59732 13.6922 1.55792 13.7474 1.53059 13.8087C1.50326 13.87 1.48857 13.9362 1.48738 14.0034C1.4862 14.0705 1.49855 14.1372 1.5237 14.1994C1.54884 14.2617 1.58627 14.3183 1.63375 14.3657C1.68123 14.4132 1.73779 14.4507 1.80005 14.4758C1.8623 14.5009 1.92899 14.5133 1.99613 14.5121C2.06326 14.5109 2.12947 14.4962 2.1908 14.4689C2.25214 14.4416 2.30734 14.4022 2.35311 14.353L4.69178 12.0144C5.08144 12.3376 5.56773 12.5218 6.07378 12.5377C6.40937 12.5203 6.73811 12.4361 7.04069 12.2899C7.34327 12.1437 7.61359 11.9385 7.83578 11.6864L11.8884 7.63238L12.0631 7.80705C12.1093 7.85478 12.1644 7.89285 12.2255 7.91902C12.2865 7.9452 12.3521 7.95896 12.4185 7.9595C12.4849 7.96005 12.5507 7.94737 12.6121 7.9222C12.6736 7.89703 12.7294 7.85988 12.7763 7.81291C12.8232 7.76594 12.8603 7.7101 12.8854 7.64864C12.9106 7.58718 12.9232 7.52133 12.9226 7.45494C12.922 7.38855 12.9081 7.32295 12.8819 7.26196C12.8557 7.20097 12.8176 7.14582 12.7698 7.09971L12.2418 6.57171L11.8918 6.22171L13.2958 4.81772L13.6464 5.16771C13.7412 5.25603 13.8666 5.30412 13.9961 5.30183C14.1257 5.29955 14.2493 5.24707 14.3409 5.15546C14.4325 5.06385 14.4849 4.94026 14.4872 4.81073C14.4895 4.6812 14.4414 4.55583 14.3531 4.46105ZM7.12778 10.979C7.01019 11.15 6.85281 11.2897 6.66919 11.3863C6.48558 11.4828 6.28123 11.5333 6.07378 11.5333C5.86632 11.5333 5.66198 11.4828 5.47836 11.3863C5.29474 11.2897 5.13736 11.15 5.01978 10.979C4.85895 10.8455 4.72697 10.6807 4.63184 10.4946C4.53672 10.3085 4.48044 10.1049 4.46644 9.89638C4.48021 9.69918 4.5435 9.50864 4.65044 9.34238L5.31711 10.0137C5.41091 10.1078 5.53823 10.1607 5.67107 10.1609C5.80391 10.1611 5.93138 10.1085 6.02544 10.0147C6.11951 9.92092 6.17246 9.79359 6.17264 9.66076C6.17283 9.52792 6.12024 9.40044 6.02644 9.30638L5.30578 8.58571L6.00911 7.88305L6.72644 8.59971C6.77222 8.64884 6.82742 8.68824 6.88875 8.71557C6.95008 8.7429 7.01629 8.75759 7.08343 8.75878C7.15056 8.75996 7.21725 8.74761 7.27951 8.72246C7.34177 8.69732 7.39832 8.65989 7.4458 8.61241C7.49328 8.56493 7.53071 8.50837 7.55586 8.44611C7.58101 8.38385 7.59336 8.31717 7.59217 8.25003C7.59099 8.1829 7.57629 8.11669 7.54896 8.05536C7.52164 7.99402 7.48223 7.93882 7.43311 7.89305L6.71578 7.17571L7.41911 6.47238L8.13978 7.19305C8.18621 7.23951 8.24134 7.27637 8.30203 7.30152C8.36271 7.32666 8.42776 7.33961 8.49344 7.33961C8.55913 7.33961 8.62418 7.32666 8.68486 7.30152C8.74554 7.27637 8.80068 7.23951 8.84711 7.19305C8.94062 7.0991 8.99312 6.97194 8.99312 6.83938C8.99312 6.70683 8.94062 6.57967 8.84711 6.48571L8.12578 5.76572L9.07378 4.81772L10.8304 6.57438L11.1791 6.92371L7.12778 10.979ZM11.1851 5.51238L10.4844 4.81438L11.8884 3.41038L12.5891 4.11105L11.1851 5.51238Z" fill="#22A9E7"/>
</svg>
