<svg width="18" height="18" viewBox="0 0 18 18" fill="none" xmlns="http://www.w3.org/2000/svg">
<g clip-path="url(#clip0_794_8953)">
<path fill-rule="evenodd" clip-rule="evenodd" d="M16.4265 6.06512L6.01872 16.4729C5.79447 16.6971 5.49522 16.8329 5.17797 16.8539L2.33697 17.0436C1.95972 17.0684 1.58922 16.9296 1.32222 16.6619C1.05447 16.3941 0.914973 16.0244 0.940473 15.6464L1.12947 12.8054C1.15122 12.4881 1.28622 12.1896 1.51122 11.9646L11.919 1.55762C12.3052 1.17062 12.8302 0.953125 13.377 0.953125C13.9237 0.953125 14.4487 1.17062 14.8357 1.55762L16.4265 3.14837C16.8135 3.53537 17.0302 4.05962 17.0302 4.60712C17.0302 5.15387 16.8135 5.67812 16.4265 6.06512ZM15.6307 5.26937C15.807 5.09387 15.9052 4.85537 15.9052 4.60712C15.9052 4.35812 15.807 4.11962 15.6307 3.94412L14.04 2.35262C13.8645 2.17712 13.626 2.07812 13.377 2.07812C13.1287 2.07812 12.8902 2.17712 12.714 2.35262L2.30697 12.7604C2.27472 12.7926 2.25522 12.8354 2.25222 12.8804L2.06322 15.7214C2.05947 15.7754 2.07897 15.8286 2.11722 15.8661C2.15547 15.9044 2.20872 15.9246 2.26272 15.9209L5.10372 15.7319C5.14872 15.7289 5.19147 15.7094 5.22372 15.6771L15.6307 5.26937Z" fill="#22A9E7"/>
<path fill-rule="evenodd" clip-rule="evenodd" d="M14.3059 7.39098C14.5249 7.61073 14.5249 7.96698 14.3059 8.18673C14.0861 8.40574 13.7299 8.40574 13.5101 8.18673L9.79763 4.47423C9.57787 4.25448 9.57787 3.89823 9.79763 3.67848C10.0174 3.45873 10.3736 3.45873 10.5934 3.67848L14.3059 7.39098Z" fill="#22A9E7"/>
</g>
<defs>
<clipPath id="clip0_794_8953">
<rect width="18" height="18" fill="white"/>
</clipPath>
</defs>
</svg>
