<svg width="16" height="16" viewBox="0 0 16 16" fill="none" xmlns="http://www.w3.org/2000/svg">
<g clip-path="url(#clip0_206_7685)">
<path d="M12.6451 9.91174C12.3176 9.57067 11.9225 9.38832 11.5037 9.38832C11.0884 9.38832 10.6899 9.56729 10.3488 9.90836L9.28172 10.9721C9.19392 10.9248 9.10612 10.8809 9.0217 10.837C8.90013 10.7762 8.78532 10.7188 8.68739 10.658C7.68782 10.0232 6.77943 9.19583 5.90819 8.12535C5.48608 7.5918 5.20242 7.14267 4.99642 6.68679C5.27333 6.43352 5.52998 6.17012 5.77987 5.91685C5.87442 5.8223 5.96897 5.72437 6.06353 5.62982C6.77268 4.92066 6.77268 4.00215 6.06353 3.29299L5.14163 2.3711C5.03695 2.26641 4.92889 2.15835 4.82758 2.05029C4.62496 1.84092 4.41222 1.6248 4.19272 1.42219C3.86516 1.098 3.47344 0.925781 3.06146 0.925781C2.64947 0.925781 2.251 1.098 1.91331 1.42219C1.90993 1.42556 1.90993 1.42556 1.90655 1.42894L0.758404 2.58722C0.326159 3.01947 0.0796448 3.54626 0.0256142 4.15748C-0.0554316 5.14354 0.234983 6.06206 0.457859 6.66315C1.00492 8.13886 1.82213 9.50651 3.04119 10.9721C4.52028 12.7382 6.29991 14.1329 8.33281 15.1156C9.1095 15.4836 10.1462 15.9193 11.3045 15.9936C11.3754 15.9969 11.4497 16.0003 11.5172 16.0003C12.2973 16.0003 12.9524 15.72 13.4657 15.1628C13.4691 15.1561 13.4758 15.1527 13.4792 15.1459C13.6548 14.9332 13.8574 14.7407 14.0702 14.5347C14.2154 14.3963 14.364 14.2511 14.5092 14.0991C14.8435 13.7513 15.0191 13.3461 15.0191 12.9307C15.0191 12.512 14.8401 12.1101 14.499 11.7724L12.6451 9.91174ZM13.8541 13.4676C13.8507 13.4676 13.8507 13.471 13.8541 13.4676C13.7224 13.6095 13.5873 13.7378 13.4421 13.8796C13.2226 14.089 12.9997 14.3085 12.7903 14.555C12.4493 14.9197 12.0474 15.0919 11.5206 15.0919C11.47 15.0919 11.4159 15.0919 11.3653 15.0885C10.3623 15.0244 9.43031 14.6327 8.73129 14.2983C6.81996 13.3731 5.14163 12.0595 3.74697 10.3946C2.59544 9.00673 1.82551 7.7235 1.31559 6.34572C1.00154 5.50487 0.886726 4.84975 0.93738 4.23178C0.971149 3.83668 1.12311 3.50912 1.40339 3.22883L2.55492 2.07731C2.72039 1.92197 2.89599 1.83755 3.06821 1.83755C3.28096 1.83755 3.45318 1.96587 3.56124 2.07393C3.56462 2.07731 3.56799 2.08068 3.57137 2.08406C3.77736 2.27655 3.97322 2.47578 4.17921 2.68853C4.2839 2.79659 4.39196 2.90465 4.50002 3.01609L5.42192 3.93798C5.77987 4.29594 5.77987 4.62687 5.42192 4.98483C5.32399 5.08276 5.22943 5.18069 5.1315 5.27524C4.84784 5.56565 4.57769 5.83581 4.2839 6.09921C4.27714 6.10596 4.27039 6.10934 4.26701 6.11609C3.9766 6.40651 4.03063 6.69017 4.09141 6.88265C4.09479 6.89278 4.09817 6.90291 4.10154 6.91304C4.3413 7.49387 4.679 8.04093 5.19229 8.69267L5.19566 8.69605C6.12769 9.8442 7.11037 10.7391 8.19436 11.4246C8.33281 11.5124 8.47464 11.5833 8.60972 11.6508C8.73129 11.7116 8.8461 11.769 8.94403 11.8298C8.95754 11.8366 8.97105 11.8467 8.98456 11.8535C9.09937 11.9109 9.20743 11.9379 9.31887 11.9379C9.59915 11.9379 9.77475 11.7623 9.83216 11.7049L10.9871 10.55C11.1019 10.4352 11.2842 10.2967 11.497 10.2967C11.7063 10.2967 11.8786 10.4284 11.9832 10.5432C11.9866 10.5466 11.9866 10.5466 11.99 10.55L13.8507 12.4107C14.1985 12.7551 14.1985 13.1097 13.8541 13.4676Z" fill="#22A9E7"/>
<path d="M8.64673 3.80573C9.53148 3.95431 10.3352 4.37305 10.9768 5.01466C11.6184 5.65627 12.0338 6.45998 12.1857 7.34473C12.2229 7.56761 12.4154 7.72294 12.6349 7.72294C12.6619 7.72294 12.6855 7.71957 12.7125 7.71619C12.9624 7.67567 13.1279 7.43928 13.0874 7.18939C12.905 6.11891 12.3985 5.14298 11.6252 4.36967C10.8519 3.59636 9.87593 3.08982 8.80545 2.90747C8.55556 2.86695 8.32255 3.03242 8.27865 3.27893C8.23475 3.52544 8.39684 3.76521 8.64673 3.80573Z" fill="#22A9E7"/>
<path d="M15.9814 7.05794C15.6808 5.29519 14.8501 3.69116 13.5736 2.41469C12.2972 1.13821 10.6931 0.307495 8.9304 0.00695018C8.68389 -0.0369496 8.45088 0.131896 8.40698 0.37841C8.36646 0.628302 8.53192 0.861308 8.78182 0.905208C10.3555 1.17198 11.7906 1.91828 12.932 3.0563C14.0734 4.1977 14.8164 5.63288 15.0831 7.20652C15.1203 7.4294 15.3128 7.58474 15.5323 7.58474C15.5593 7.58474 15.5829 7.58136 15.6099 7.57798C15.8564 7.54084 16.0253 7.30445 15.9814 7.05794Z" fill="#22A9E7"/>
</g>
<defs>
<clipPath id="clip0_206_7685">
<rect width="16" height="16" fill="white"/>
</clipPath>
</defs>
</svg>
