<svg width="15" height="16" viewBox="0 0 15 16" fill="none" xmlns="http://www.w3.org/2000/svg">
<g clip-path="url(#clip0_794_3005)">
<path d="M7.5 0.5C4.39781 0.5 1.875 3.02281 1.875 6.125C1.875 10.0241 6.9525 15.1466 7.16813 15.3631C7.26 15.4541 7.38 15.5 7.5 15.5C7.62 15.5 7.74 15.4541 7.83187 15.3631C8.0475 15.1466 13.125 10.0241 13.125 6.125C13.125 3.02281 10.6022 0.5 7.5 0.5ZM7.5 14.3534C6.38062 13.1553 2.8125 9.10344 2.8125 6.125C2.8125 3.54031 4.91531 1.4375 7.5 1.4375C10.0847 1.4375 12.1875 3.54031 12.1875 6.125C12.1875 9.10063 8.61938 13.1553 7.5 14.3534Z" fill="#979797"/>
<path d="M7.5 3.3125C5.94937 3.3125 4.6875 4.57437 4.6875 6.125C4.6875 7.67562 5.94937 8.9375 7.5 8.9375C9.05062 8.9375 10.3125 7.67562 10.3125 6.125C10.3125 4.57437 9.05062 3.3125 7.5 3.3125ZM7.5 8C6.46594 8 5.625 7.15906 5.625 6.125C5.625 5.09094 6.46594 4.25 7.5 4.25C8.53406 4.25 9.375 5.09094 9.375 6.125C9.375 7.15906 8.53406 8 7.5 8Z" fill="#979797"/>
</g>
<defs>
<clipPath id="clip0_794_3005">
<rect width="15" height="15" fill="white" transform="translate(0 0.5)"/>
</clipPath>
</defs>
</svg>
