<svg width="16" height="17" viewBox="0 0 16 17" fill="none" xmlns="http://www.w3.org/2000/svg">
<g clip-path="url(#clip0_196_3411)">
<path d="M8 0.5C4.691 0.5 2 3.191 2 6.5C2 10.659 7.416 16.123 7.646 16.354C7.744 16.451 7.872 16.5 8 16.5C8.128 16.5 8.256 16.451 8.354 16.354C8.584 16.123 14 10.659 14 6.5C14 3.191 11.309 0.5 8 0.5ZM8 15.277C6.806 13.999 3 9.677 3 6.5C3 3.743 5.243 1.5 8 1.5C10.757 1.5 13 3.743 13 6.5C13 9.674 9.194 13.999 8 15.277Z" fill="#0F7EB0"/>
<path d="M8 3.5C6.346 3.5 5 4.846 5 6.5C5 8.154 6.346 9.5 8 9.5C9.654 9.5 11 8.154 11 6.5C11 4.846 9.654 3.5 8 3.5ZM8 8.5C6.897 8.5 6 7.603 6 6.5C6 5.397 6.897 4.5 8 4.5C9.103 4.5 10 5.397 10 6.5C10 7.603 9.103 8.5 8 8.5Z" fill="#0F7EB0"/>
</g>
<defs>
<clipPath id="clip0_196_3411">
<rect width="16" height="16" fill="white" transform="translate(0 0.5)"/>
</clipPath>
</defs>
</svg>
