<svg width="16" height="17" viewBox="0 0 16 17" fill="none" xmlns="http://www.w3.org/2000/svg">
<g clip-path="url(#clip0_284_20042)">
<mask id="mask0_284_20042" style="mask-type:luminance" maskUnits="userSpaceOnUse" x="0" y="0" width="16" height="17">
<path d="M0 0.500001H16V16.5H0V0.500001Z" fill="white"/>
</mask>
<g mask="url(#mask0_284_20042)">
<path fill-rule="evenodd" clip-rule="evenodd" d="M7.81813 6.80766C7.99965 6.90237 8.22162 6.86831 8.3664 6.72355L10.8992 4.19105C11.0168 4.07349 11.0633 3.90245 11.0214 3.74154C10.9796 3.58063 10.8556 3.45394 10.6956 3.4086L3.69624 1.42453C3.5328 1.3782 3.35707 1.42393 3.23695 1.54406L1.80038 2.98062C1.69485 3.08616 1.64588 3.23564 1.66851 3.38317C1.69115 3.53069 1.78268 3.65862 1.91501 3.72766L7.81813 6.80766ZM2.9149 3.19193L3.70529 2.40154L9.67161 4.09277L7.9468 5.81736L2.9149 3.19193Z" fill="#0F7EB0"/>
<path fill-rule="evenodd" clip-rule="evenodd" d="M13.1168 14.8315C13.2644 14.8541 13.4138 14.8052 13.5194 14.6996L14.9559 13.2631C15.0761 13.1429 15.1218 12.9672 15.0755 12.8038L13.0914 5.80439C13.0461 5.64442 12.9194 5.52045 12.7585 5.47858C12.5976 5.43671 12.4265 5.48321 12.3089 5.60079L9.77645 8.1336C9.63169 8.27838 9.59763 8.50035 9.69234 8.68187L12.7723 14.585C12.8414 14.7173 12.9693 14.8089 13.1168 14.8315ZM13.3081 13.5851L10.6826 8.5532L12.4072 6.82839L14.0985 12.7947L13.3081 13.5851Z" fill="#0F7EB0"/>
<path fill-rule="evenodd" clip-rule="evenodd" d="M6.8793 16.4954C7.02518 16.516 7.17228 16.4669 7.27646 16.3627L8.50927 15.1299C8.62867 15.0105 8.67462 14.8361 8.62958 14.6734L7.74778 11.4879L10.439 8.79676L10.439 8.79674L14.6977 4.5377C15.4021 3.83333 15.8557 2.91714 15.9886 1.9298C15.9967 1.87067 16 1.81358 16 1.75906C16 1.00998 15.3383 0.408316 14.5708 0.511352L14.5705 0.511386C14.077 0.577904 13.6011 0.724209 13.1602 0.942373L13.1601 0.942439C12.7197 1.16053 12.3145 1.45005 11.9623 1.80229L5.01206 8.75222L1.82662 7.87042C1.66389 7.82538 1.48951 7.87133 1.37011 7.99073L0.137298 9.22354C0.0331167 9.32772 -0.0160201 9.47482 0.0046328 9.6207C0.0252857 9.76658 0.113325 9.89427 0.242332 9.96543L4.29749 12.2025L6.53457 16.2577C6.60573 16.3867 6.73342 16.4747 6.8793 16.4954ZM7.05433 15.259L5.05294 11.6311C5.0102 11.5536 4.9464 11.4898 4.86893 11.4471L1.241 9.44567L1.83983 8.84684L5.02526 9.72863C5.18799 9.77368 5.36238 9.72772 5.48177 9.60833L12.6252 2.4652C12.9048 2.18557 13.2265 1.95571 13.5762 1.78255C13.9259 1.60951 14.3037 1.49333 14.6957 1.44048C14.8919 1.41431 15.0625 1.56822 15.0625 1.75906C15.0625 1.77544 15.0615 1.78986 15.0597 1.80282L15.0595 1.80442C14.9541 2.58815 14.5941 3.31553 14.0348 3.87479L12.3085 5.60104L12.3085 5.60106L6.89167 11.0182C6.77228 11.1376 6.72632 11.312 6.77137 11.4747L7.65316 14.6602L7.05433 15.259Z" fill="#0F7EB0"/>
</g>
</g>
<defs>
<clipPath id="clip0_284_20042">
<rect width="16" height="16" fill="white" transform="translate(0 0.5)"/>
</clipPath>
</defs>
</svg>
