<svg width="16" height="17" viewBox="0 0 16 17" fill="none" xmlns="http://www.w3.org/2000/svg">
<path d="M15.5342 3.34387C15.5332 3.34387 15.5322 3.34375 15.5312 3.34375H11.2812V2.875C11.2812 2.09961 10.6504 1.46875 9.875 1.46875H6.125C5.34961 1.46875 4.71875 2.09961 4.71875 2.875V3.34375H0.46875C0.207764 3.34375 0 3.55762 0 3.8125V14.125C0 14.9004 0.630859 15.5312 1.40625 15.5312H14.5938C15.3691 15.5312 16 14.9004 16 14.125V3.82239C16 3.82178 16 3.82117 16 3.82056C15.9821 3.5127 15.7927 3.34558 15.5342 3.34387ZM5.65625 2.875C5.65625 2.61658 5.86658 2.40625 6.125 2.40625H9.875C10.1334 2.40625 10.3438 2.61658 10.3438 2.875V3.34375H5.65625V2.875ZM14.8809 4.28125L13.4252 8.64819C13.3613 8.83997 13.1826 8.96875 12.9806 8.96875H10.3438V8.5C10.3438 8.24109 10.1339 8.03125 9.875 8.03125H6.125C5.86609 8.03125 5.65625 8.24109 5.65625 8.5V8.96875H3.01941C2.81738 8.96875 2.63867 8.83997 2.57483 8.64819L1.11914 4.28125H14.8809ZM9.40625 8.96875V9.90625H6.59375V8.96875H9.40625ZM15.0625 14.125C15.0625 14.3834 14.8522 14.5938 14.5938 14.5938H1.40625C1.14783 14.5938 0.9375 14.3834 0.9375 14.125V6.70105L1.68542 8.9447C1.87708 9.5199 2.41321 9.90625 3.01941 9.90625H5.65625V10.375C5.65625 10.6339 5.86609 10.8438 6.125 10.8438H9.875C10.1339 10.8438 10.3438 10.6339 10.3438 10.375V9.90625H12.9806C13.5868 9.90625 14.1229 9.5199 14.3146 8.9447L15.0625 6.70105V14.125Z" fill="#0F7EB0"/>
</svg>
