<svg width="15" height="16" viewBox="0 0 15 16" fill="none" xmlns="http://www.w3.org/2000/svg">
<path d="M14.5633 3.16613C14.5624 3.16613 14.5615 3.16602 14.5605 3.16602H10.5762V2.72656C10.5762 1.99963 9.98474 1.4082 9.25781 1.4082H5.74219C5.01526 1.4082 4.42383 1.99963 4.42383 2.72656V3.16602H0.439453C0.194778 3.16602 0 3.36652 0 3.60547V13.2734C0 14.0004 0.591431 14.5918 1.31836 14.5918H13.6816C14.4086 14.5918 15 14.0004 15 13.2734V3.61474C15 3.61417 15 3.61359 15 3.61302C14.9832 3.3244 14.8057 3.16773 14.5633 3.16613ZM5.30273 2.72656C5.30273 2.48429 5.49992 2.28711 5.74219 2.28711H9.25781C9.50008 2.28711 9.69727 2.48429 9.69727 2.72656V3.16602H5.30273V2.72656ZM13.9508 4.04492L12.5861 8.13893C12.5262 8.31872 12.3587 8.43945 12.1693 8.43945H9.69727V8C9.69727 7.75727 9.50054 7.56055 9.25781 7.56055H5.74219C5.49946 7.56055 5.30273 7.75727 5.30273 8V8.43945H2.8307C2.6413 8.43945 2.47375 8.31872 2.4139 8.13893L1.04919 4.04492H13.9508ZM8.81836 8.43945V9.31836H6.18164V8.43945H8.81836ZM14.1211 13.2734C14.1211 13.5157 13.9239 13.7129 13.6816 13.7129H1.31836C1.07609 13.7129 0.878906 13.5157 0.878906 13.2734V6.31348L1.58009 8.41691C1.75976 8.95615 2.26238 9.31836 2.8307 9.31836H5.30273V9.75781C5.30273 10.0005 5.49946 10.1973 5.74219 10.1973H9.25781C9.50054 10.1973 9.69727 10.0005 9.69727 9.75781V9.31836H12.1693C12.7376 9.31836 13.2402 8.95615 13.4199 8.41691L14.1211 6.31348V13.2734Z" fill="#979797"/>
</svg>
