<svg width="16" height="16" viewBox="0 0 16 16" fill="none" xmlns="http://www.w3.org/2000/svg">
<g clip-path="url(#clip0_204_6548)">
<path d="M15.5342 2.84387C15.5332 2.84387 15.5322 2.84375 15.5312 2.84375H11.2812V2.375C11.2812 1.59961 10.6504 0.96875 9.875 0.96875H6.125C5.34961 0.96875 4.71875 1.59961 4.71875 2.375V2.84375H0.46875C0.207764 2.84375 0 3.05762 0 3.3125V13.625C0 14.4004 0.630859 15.0312 1.40625 15.0312H14.5938C15.3691 15.0312 16 14.4004 16 13.625V3.32239C16 3.32178 16 3.32117 16 3.32056C15.9821 3.0127 15.7927 2.84558 15.5342 2.84387ZM5.65625 2.375C5.65625 2.11658 5.86658 1.90625 6.125 1.90625H9.875C10.1334 1.90625 10.3438 2.11658 10.3438 2.375V2.84375H5.65625V2.375ZM14.8809 3.78125L13.4252 8.14819C13.3613 8.33997 13.1826 8.46875 12.9806 8.46875H10.3438V8C10.3438 7.74109 10.1339 7.53125 9.875 7.53125H6.125C5.86609 7.53125 5.65625 7.74109 5.65625 8V8.46875H3.01941C2.81738 8.46875 2.63867 8.33997 2.57483 8.14819L1.11914 3.78125H14.8809ZM9.40625 8.46875V9.40625H6.59375V8.46875H9.40625ZM15.0625 13.625C15.0625 13.8834 14.8522 14.0938 14.5938 14.0938H1.40625C1.14783 14.0938 0.9375 13.8834 0.9375 13.625V6.20105L1.68542 8.4447C1.87708 9.0199 2.41321 9.40625 3.01941 9.40625H5.65625V9.875C5.65625 10.1339 5.86609 10.3438 6.125 10.3438H9.875C10.1339 10.3438 10.3438 10.1339 10.3438 9.875V9.40625H12.9806C13.5868 9.40625 14.1229 9.0199 14.3146 8.4447L15.0625 6.20105V13.625Z" fill="#22A9E7"/>
</g>
<defs>
<clipPath id="clip0_204_6548">
<rect width="16" height="16" fill="white"/>
</clipPath>
</defs>
</svg>
