<svg width="44" height="44" viewBox="0 0 44 44" fill="none" xmlns="http://www.w3.org/2000/svg">
<g clip-path="url(#clip0_2229_36716)">
<path d="M38.9414 8.06704L22.7343 0.410348C22.2702 0.190348 21.7312 0.191035 21.2664 0.410348L5.05863 8.06704C4.45706 8.35097 4.07413 8.95597 4.07413 9.62079V25.1012C4.07413 28.7003 5.66431 32.0305 8.327 34.0105L20.9749 43.4148C21.2795 43.641 21.6398 43.7545 22.0007 43.7545C22.3616 43.7545 22.7219 43.641 23.0258 43.4148L35.6737 34.0105C38.3364 32.0312 39.9266 28.7003 39.9266 25.1012V9.62079C39.9259 8.95597 39.5429 8.35097 38.9414 8.06704ZM36.4884 25.1012C36.4884 27.6188 35.4166 29.9185 33.6229 31.2523L22 39.8942L10.3771 31.2523C8.58275 29.9178 7.51094 27.6182 7.51094 25.1012V10.7098L22 3.86504L36.4884 10.7098V25.1012Z" fill="#71A6A6"/>
<path d="M22 6.52637L9.91719 12.234V25.1012C9.91719 26.8612 10.626 28.4384 11.8133 29.3218L22 36.8953L32.1881 29.3218C33.3747 28.4397 34.0828 26.8619 34.0828 25.1012V12.234L22 6.52637ZM28.7705 19.1138L21.1454 26.7389C20.8099 27.0744 20.3699 27.2421 19.9299 27.2421C19.4899 27.2421 19.0499 27.0744 18.7144 26.7389L15.2288 23.2532C14.5571 22.5822 14.5571 21.4939 15.2288 20.8229C15.8998 20.1512 16.9888 20.1512 17.6591 20.8229L19.9299 23.0937L26.3395 16.6842C27.0112 16.0125 28.0988 16.0125 28.7698 16.6842C29.4422 17.3545 29.4422 18.4428 28.7705 19.1138Z" fill="#71A6A6"/>
</g>
<defs>
<clipPath id="clip0_2229_36716">
<rect width="44" height="44" fill="white"/>
</clipPath>
</defs>
</svg>
