<svg width="24" height="24" viewBox="0 0 24 24" fill="none" xmlns="http://www.w3.org/2000/svg">
<g clip-path="url(#clip0_2402_48)">
<path d="M18.6979 11.5402C18.1039 11.4809 16.797 11.4809 16.797 10.6492C16.797 9.52078 18.4601 8.03578 21.1331 6.4319C21.9645 5.89715 23.6876 5.06578 23.6876 3.93703C23.6876 3.04603 23.034 2.39278 21.6679 2.5709C20.361 2.74903 18.3412 3.64003 15.6686 5.89715C12.8767 8.2139 10.2634 12.0749 10.2634 15.8763C10.2634 19.7373 12.8767 23.5983 17.0944 23.5983C20.4799 23.5983 23.3906 21.0442 23.3906 17.5394C23.3902 14.8664 21.549 11.7779 18.6979 11.5402Z" fill="#82CFEE"/>
<path d="M10.3478 9.86989C9.85988 9.61489 9.32475 9.44802 8.74725 9.40002C8.15325 9.34077 6.84638 9.34077 6.84638 8.50902C6.84638 7.38064 8.5095 5.89564 11.1825 4.29177C12.0143 3.75702 13.7366 2.92564 13.7366 1.79689C13.7366 0.90589 13.083 0.25264 11.7169 0.430765C10.41 0.60889 8.39025 1.49989 5.71763 3.75702C2.92613 6.07377 0.312378 9.93477 0.312378 13.7365C0.312378 17.5975 2.92575 21.4585 7.14338 21.4585C8.13488 21.4585 9.08513 21.238 9.93375 20.8401C9.10163 19.3356 8.658 17.5949 8.658 15.8766C8.65838 13.7549 9.34163 11.6973 10.3478 9.86989Z" fill="#82CFEE"/>
</g>
<defs>
<clipPath id="clip0_2402_48">
<rect width="24" height="24" fill="white"/>
</clipPath>
</defs>
</svg>
