<svg width="81" height="80" viewBox="0 0 81 80" fill="none" xmlns="http://www.w3.org/2000/svg">
<path fill-rule="evenodd" clip-rule="evenodd" d="M38.8333 67.5433H10.3333C10.1567 67.5433 9.98666 67.47 9.86333 67.3467C9.73666 67.22 9.66666 67.0533 9.66666 66.8767C9.66666 66.8733 9.66666 62.0433 9.66666 62.0433C9.66666 59.2733 11.6433 56.8333 14.69 54.76C20.13 51.0467 28.9333 48.7067 38.8333 48.7067C40.2133 48.7067 41.3333 47.5867 41.3333 46.2067C41.3333 44.83 40.2133 43.7067 38.8333 43.7067C27.76 43.7067 17.9567 46.4767 11.87 50.6267C7.22666 53.7933 4.66666 57.8167 4.66666 62.04V66.8767C4.66666 68.3767 5.26333 69.82 6.32666 70.8833C7.39 71.9433 8.83 72.5433 10.3333 72.5433H38.8333C40.2133 72.54 41.3333 71.42 41.3333 70.04C41.3333 68.6633 40.2133 67.54 38.8333 67.5433Z" fill="#A9C5C5"/>
<path fill-rule="evenodd" clip-rule="evenodd" d="M38.8333 4.16667C28.7133 4.16667 20.5 12.38 20.5 22.5C20.5 32.62 28.7133 40.8333 38.8333 40.8333C48.9533 40.8333 57.1667 32.62 57.1667 22.5C57.1667 12.38 48.9533 4.16667 38.8333 4.16667ZM38.8333 9.16667C46.1933 9.16667 52.1667 15.14 52.1667 22.5C52.1667 29.86 46.1933 35.8333 38.8333 35.8333C31.4733 35.8333 25.5 29.86 25.5 22.5C25.5 15.14 31.4733 9.16667 38.8333 9.16667Z" fill="#A9C5C5"/>
<path fill-rule="evenodd" clip-rule="evenodd" d="M56.3333 52.5V64.1667C56.3333 65.5467 57.4533 66.6667 58.8333 66.6667C60.2133 66.6667 61.3333 65.5467 61.3333 64.1667V52.5C61.3333 51.12 60.2133 50 58.8333 50C57.4533 50 56.3333 51.12 56.3333 52.5Z" fill="#A9C5C5"/>
<path fill-rule="evenodd" clip-rule="evenodd" d="M53 60.8333H64.6667C66.0467 60.8333 67.1667 59.7133 67.1667 58.3333C67.1667 56.9533 66.0467 55.8333 64.6667 55.8333H53C51.62 55.8333 50.5 56.9533 50.5 58.3333C50.5 59.7133 51.62 60.8333 53 60.8333Z" fill="#A9C5C5"/>
<path fill-rule="evenodd" clip-rule="evenodd" d="M58.8333 40.8333C49.1733 40.8333 41.3333 48.6733 41.3333 58.3333C41.3333 67.9933 49.1733 75.8333 58.8333 75.8333C68.4933 75.8333 76.3333 67.9933 76.3333 58.3333C76.3333 48.6733 68.4933 40.8333 58.8333 40.8333ZM58.8333 45.8333C65.7333 45.8333 71.3333 51.4333 71.3333 58.3333C71.3333 65.2333 65.7333 70.8333 58.8333 70.8333C51.9333 70.8333 46.3333 65.2333 46.3333 58.3333C46.3333 51.4333 51.9333 45.8333 58.8333 45.8333Z" fill="#A9C5C5"/>
</svg>
