<svg width="24" height="24" viewBox="0 0 24 24" fill="none" xmlns="http://www.w3.org/2000/svg">
<path d="M18.9998 1.25015H5.00016C4.99688 1.25015 4.9936 1.25015 4.98985 1.25015C4.01766 1.24453 3.22547 2.02828 3.21985 3.00046V20.0006C3.22172 20.6733 3.61125 21.2845 4.21969 21.5705C4.46297 21.6881 4.72969 21.7495 4.99969 21.7505C5.37797 21.7491 5.74594 21.6262 6.04969 21.4003L11.8997 17.0503C11.9873 16.98 12.112 16.98 12.1997 17.0503L17.9995 21.4003C18.2831 21.5977 18.6188 21.7069 18.9642 21.7139C19.9303 21.7336 20.73 20.9662 20.7497 20.0002V3C20.7441 2.03578 19.9641 1.25531 18.9998 1.25015Z" fill="#22A9E7"/>
</svg>
