<svg width="18" height="18" viewBox="0 0 18 18" fill="none" xmlns="http://www.w3.org/2000/svg">
<path d="M3.75004 16.3126C3.54741 16.3118 3.34752 16.2657 3.16504 16.1776C2.94136 16.0725 2.75212 15.906 2.61934 15.6976C2.48657 15.4891 2.41572 15.2472 2.41504 15.0001V2.25009C2.41602 2.0761 2.45138 1.90403 2.51909 1.74376C2.58681 1.5835 2.68554 1.4382 2.8096 1.31622C2.93367 1.19424 3.08063 1.098 3.24202 1.03302C3.40342 0.968038 3.57607 0.935606 3.75004 0.937585H14.25C14.5975 0.939554 14.9302 1.07847 15.1759 1.32418C15.4217 1.5699 15.5606 1.9026 15.5625 2.25009V15.0001C15.5577 15.2376 15.4884 15.4693 15.3622 15.6706C15.236 15.8718 15.0575 16.035 14.8458 16.1428C14.6341 16.2506 14.3971 16.2989 14.1601 16.2826C13.9231 16.2662 13.695 16.1859 13.5 16.0501L9.15004 12.7876C9.11811 12.762 9.07844 12.7481 9.03754 12.7481C8.99664 12.7481 8.95696 12.762 8.92504 12.7876L4.53754 16.0501C4.30985 16.2195 4.03385 16.3115 3.75004 16.3126ZM3.75004 2.06259C3.70031 2.06259 3.65262 2.08234 3.61746 2.1175C3.58229 2.15267 3.56254 2.20036 3.56254 2.25009V15.0001C3.56228 15.0348 3.57205 15.0688 3.59067 15.0981C3.6093 15.1274 3.636 15.1506 3.66754 15.1651C3.69625 15.1848 3.73024 15.1953 3.76504 15.1953C3.79984 15.1953 3.83383 15.1848 3.86254 15.1651L8.25004 11.8876C8.47818 11.7195 8.75414 11.6288 9.03754 11.6288C9.32094 11.6288 9.59689 11.7195 9.82504 11.8876L14.175 15.1501C14.2037 15.1698 14.2377 15.1803 14.2725 15.1803C14.3073 15.1803 14.3413 15.1698 14.37 15.1501C14.4016 15.1356 14.4283 15.1124 14.4469 15.0831C14.4655 15.0538 14.4753 15.0198 14.475 14.9851V2.25009C14.4756 2.22196 14.4698 2.19407 14.4582 2.16848C14.4465 2.14289 14.4292 2.12025 14.4076 2.10225C14.386 2.08424 14.3606 2.07133 14.3333 2.06446C14.3061 2.0576 14.2776 2.05695 14.25 2.06259H3.75004Z" fill="white"/>
</svg>
