<svg width="16" height="16" viewBox="0 0 16 16" fill="none" xmlns="http://www.w3.org/2000/svg">
<path d="M3.33327 14.4998C3.15316 14.4991 2.97548 14.4581 2.81327 14.3798C2.61444 14.2863 2.44623 14.1384 2.32821 13.9531C2.21019 13.7678 2.14721 13.5528 2.14661 13.3331V1.99975C2.14748 1.8451 2.17891 1.69215 2.2391 1.54969C2.29929 1.40723 2.38705 1.27807 2.49733 1.16965C2.60761 1.06123 2.73824 0.975674 2.8817 0.917913C3.02516 0.860153 3.17863 0.831324 3.33327 0.833084H12.6666C12.9755 0.834834 13.2712 0.958312 13.4896 1.17673C13.708 1.39514 13.8315 1.69087 13.8333 1.99975V13.3331C13.8289 13.5442 13.7674 13.7502 13.6552 13.9291C13.543 14.108 13.3843 14.253 13.1961 14.3489C13.008 14.4447 12.7973 14.4876 12.5866 14.4731C12.376 14.4585 12.1732 14.3871 11.9999 14.2664L8.13327 11.3664C8.1049 11.3437 8.06963 11.3313 8.03327 11.3313C7.99692 11.3313 7.96165 11.3437 7.93327 11.3664L4.03327 14.2664C3.83088 14.417 3.58555 14.4988 3.33327 14.4998ZM3.33327 1.83308C3.28907 1.83308 3.24668 1.85064 3.21542 1.8819C3.18417 1.91316 3.16661 1.95555 3.16661 1.99975V13.3331C3.16637 13.3639 3.17506 13.3942 3.19162 13.4202C3.20817 13.4462 3.2319 13.4669 3.25994 13.4798C3.28546 13.4972 3.31567 13.5066 3.34661 13.5066C3.37754 13.5066 3.40775 13.4972 3.43327 13.4798L7.33327 10.5664C7.53607 10.417 7.78137 10.3364 8.03327 10.3364C8.28518 10.3364 8.53048 10.417 8.73327 10.5664L12.5999 13.4664C12.6255 13.4839 12.6557 13.4933 12.6866 13.4933C12.7175 13.4933 12.7478 13.4839 12.7733 13.4664C12.8013 13.4536 12.825 13.4329 12.8416 13.4069C12.8582 13.3808 12.8668 13.3506 12.8666 13.3198V1.99975C12.8671 1.97475 12.862 1.94996 12.8516 1.92722C12.8412 1.90447 12.8259 1.88435 12.8067 1.86834C12.7875 1.85233 12.7649 1.84085 12.7407 1.83475C12.7164 1.82865 12.6911 1.82808 12.6666 1.83308H3.33327Z" fill="#22A9E7"/>
</svg>
