<svg width="18" height="18" viewBox="0 0 18 18" fill="none" xmlns="http://www.w3.org/2000/svg">
<path d="M14.25 0.937523H3.75027C3.74781 0.937523 3.74535 0.937523 3.74254 0.937523C3.0134 0.933304 2.41926 1.52112 2.41504 2.25026V15.0004C2.41645 15.5049 2.70859 15.9633 3.16492 16.1778C3.34738 16.266 3.54742 16.3121 3.74992 16.3128C4.03363 16.3117 4.30961 16.2196 4.53742 16.0501L8.92492 12.7876C8.99066 12.7349 9.08418 12.7349 9.14992 12.7876L13.4998 16.0501C13.7125 16.1981 13.9642 16.2801 14.2233 16.2853C14.9479 16.3001 15.5477 15.7246 15.5624 15V2.24991C15.5582 1.52674 14.9732 0.94139 14.25 0.937523Z" fill="white"/>
</svg>
