<svg width="16" height="16" viewBox="0 0 16 16" fill="none" xmlns="http://www.w3.org/2000/svg">
<g clip-path="url(#clip0_568_15499)">
<path d="M9.84002 15.0996C9.56461 15.0953 9.29546 15.0169 9.06084 14.8726C8.82621 14.7283 8.63479 14.5235 8.50669 14.2796L6.18669 10.0396C6.13616 9.94263 6.05703 9.8635 5.96002 9.81297L1.72002 7.5263C1.45061 7.37996 1.2303 7.15747 1.08661 6.88663C0.942915 6.6158 0.882214 6.30863 0.912087 6.0035C0.94196 5.69837 1.06108 5.4088 1.25457 5.17098C1.44806 4.93316 1.70734 4.75762 2.00002 4.6663L13.0467 0.979637C13.3257 0.880775 13.6269 0.862954 13.9156 0.928237C14.2043 0.99352 14.4685 1.13924 14.6778 1.34851C14.8871 1.55779 15.0328 1.82207 15.0981 2.11074C15.1634 2.39941 15.1455 2.70067 15.0467 2.97964L11.3334 14.033C11.24 14.3212 11.0637 14.5755 10.8266 14.7641C10.5894 14.9526 10.3019 15.067 10 15.093L9.84002 15.0996ZM13.3334 1.93297L2.28669 5.61964C2.18137 5.6535 2.08845 5.71779 2.01963 5.8044C1.95082 5.89101 1.9092 5.99606 1.90002 6.1063C1.89007 6.21523 1.91262 6.32466 1.96483 6.42077C2.01704 6.51688 2.09656 6.59536 2.19335 6.6463L6.43335 8.93297C6.70304 9.07601 6.92364 9.29662 7.06669 9.5663L9.33335 13.8063C9.38429 13.9031 9.46278 13.9826 9.55889 14.0348C9.655 14.087 9.76443 14.1096 9.87335 14.0996C9.98359 14.0905 10.0886 14.0488 10.1753 13.98C10.2619 13.9112 10.3262 13.8183 10.36 13.713L14.0667 2.6663C14.1098 2.56373 14.1215 2.45062 14.1 2.34142C14.0786 2.23221 14.0252 2.13186 13.9465 2.05318C13.8678 1.97449 13.7674 1.92103 13.6582 1.89962C13.549 1.87821 13.4359 1.88982 13.3334 1.93297Z" fill="white"/>
<path d="M6.44672 10.0535C6.38086 10.055 6.31541 10.0427 6.25457 10.0175C6.19373 9.99222 6.13883 9.95454 6.09338 9.90685C6.04621 9.86089 6.00872 9.80595 5.98312 9.74526C5.95752 9.68458 5.94434 9.61938 5.94434 9.55352C5.94434 9.48766 5.95752 9.42246 5.98312 9.36178C6.00872 9.3011 6.04621 9.24615 6.09338 9.20019L13.9334 1.33352C14.0306 1.23627 14.1625 1.18164 14.3 1.18164C14.4376 1.18164 14.5695 1.23627 14.6667 1.33352C14.764 1.43076 14.8186 1.56266 14.8186 1.70019C14.8186 1.83771 14.764 1.96961 14.6667 2.06685L6.80005 9.90685C6.75389 9.95359 6.69885 9.99065 6.63818 10.0158C6.5775 10.041 6.51241 10.0538 6.44672 10.0535Z" fill="white"/>
</g>
<defs>
<clipPath id="clip0_568_15499">
<rect width="16" height="16" fill="white"/>
</clipPath>
</defs>
</svg>
