<svg width="18" height="18" viewBox="0 0 18 18" fill="none" xmlns="http://www.w3.org/2000/svg">
<path d="M1.125 16.3124C1.08211 16.3124 1.0388 16.3075 0.995906 16.2977C0.742078 16.2372 0.5625 16.0108 0.5625 15.7499C0.5625 10.6385 1.20909 6.3874 9 6.19404V2.24993C9 2.02633 9.13233 1.82426 9.3368 1.73468C9.54056 1.64566 9.77948 1.68419 9.9443 1.83691L17.2568 8.58691C17.3721 8.6928 17.4375 8.84285 17.4375 8.99993C17.4375 9.15701 17.3721 9.30705 17.2568 9.41308L9.9443 16.1631C9.78005 16.3158 9.54112 16.3553 9.3368 16.2653C9.13233 16.1756 9 15.9735 9 15.7499V11.819C3.65569 11.947 2.66963 13.9186 1.62816 16.0015C1.53155 16.1954 1.33425 16.3124 1.125 16.3124ZM9.5625 10.6874C9.87342 10.6874 10.125 10.939 10.125 11.2499V14.465L16.0456 8.99993L10.125 3.53482V6.74993C10.125 7.06085 9.87342 7.31243 9.5625 7.31243C3.34856 7.31243 2.01052 9.71571 1.74741 13.5544C2.91248 11.9893 4.89825 10.6874 9.5625 10.6874Z" fill="#22A9E7"/>
</svg>
