<svg width="16" height="16" viewBox="0 0 16 16" fill="none" xmlns="http://www.w3.org/2000/svg">
<g clip-path="url(#clip0_204_6572)">
<path d="M10.8002 0H5.2002C4.09781 0 3.2002 0.896797 3.2002 2V14C3.2002 15.1032 4.09781 16 5.2002 16H10.8002C11.9026 16 12.8002 15.1032 12.8002 14V2C12.8002 0.896797 11.9026 0 10.8002 0ZM5.2002 0.8H10.8002C11.4618 0.8 12.0002 1.3384 12.0002 2V12H4.0002V2C4.0002 1.3384 4.53859 0.8 5.2002 0.8ZM10.8002 15.2H5.2002C4.53859 15.2 4.0002 14.6616 4.0002 14V12.8H12.0002V14C12.0002 14.6616 11.4618 15.2 10.8002 15.2Z" fill="#22A9E7"/>
<path d="M8.4002 13.5996H7.6002C7.37941 13.5996 7.2002 13.7788 7.2002 13.9996C7.2002 14.2204 7.37941 14.3996 7.6002 14.3996H8.4002C8.62098 14.3996 8.8002 14.2204 8.8002 13.9996C8.8002 13.7788 8.62098 13.5996 8.4002 13.5996Z" fill="#22A9E7"/>
</g>
<defs>
<clipPath id="clip0_204_6572">
<rect width="16" height="16" fill="white"/>
</clipPath>
</defs>
</svg>
