<svg width="24" height="24" viewBox="0 0 24 24" fill="none" xmlns="http://www.w3.org/2000/svg">
<path d="M22.4332 10.3126L17.7615 14.8666L18.8647 21.2986C18.9127 21.5798 18.7972 21.8641 18.5662 22.0321C18.4357 22.1273 18.2805 22.1753 18.1252 22.1753C18.006 22.1753 17.886 22.1468 17.7765 22.0891L12 19.0523L6.22425 22.0883C5.97225 22.2218 5.66549 22.2001 5.43449 22.0313C5.2035 21.8633 5.088 21.5791 5.136 21.2978L6.23925 14.8658L1.56675 10.3126C1.36275 10.1131 1.2885 9.81455 1.377 9.5438C1.4655 9.27305 1.70025 9.0743 1.983 9.03305L8.43975 8.09555L11.3272 2.24405C11.58 1.7318 12.42 1.7318 12.6727 2.24405L15.5602 8.09555L22.017 9.03305C22.2997 9.0743 22.5345 9.2723 22.623 9.5438C22.7115 9.8153 22.6372 10.1123 22.4332 10.3126Z" fill="#FF922D"/>
</svg>
