<svg width="16" height="17" viewBox="0 0 16 17" fill="none" xmlns="http://www.w3.org/2000/svg">
<path d="M7.99984 1.16699C3.95617 1.16699 0.666504 4.45666 0.666504 8.50033C0.666504 12.544 3.95617 15.8337 7.99984 15.8337C12.0435 15.8337 15.3332 12.544 15.3332 8.50033C15.3332 4.45666 12.0435 1.16699 7.99984 1.16699ZM7.99984 14.786C4.53369 14.786 1.71412 11.9665 1.71412 8.50033C1.71412 5.03418 4.53369 2.21461 7.99984 2.21461C11.466 2.21461 14.2856 5.03418 14.2856 8.50033C14.2856 11.9665 11.466 14.786 7.99984 14.786Z" fill="#0F7EB0"/>
<path d="M12.6415 7.34351C12.5803 7.1466 12.4182 7.00329 12.2228 6.97356L9.62611 6.57761L8.46501 4.11166C8.29082 3.74012 7.70951 3.74012 7.53532 4.11166L6.37421 6.57761L3.77756 6.97356C3.5821 7.00329 3.42006 7.1466 3.35879 7.34351C3.29803 7.53989 3.34866 7.75592 3.48994 7.90029L5.36907 9.82008L4.9255 12.5307C4.89208 12.7345 4.97208 12.9405 5.13159 13.062C5.29211 13.1841 5.50326 13.2005 5.67796 13.1034L8.00016 11.8237L10.3224 13.1034C10.3983 13.1453 10.4814 13.166 10.5639 13.166C10.6713 13.166 10.7781 13.131 10.8687 13.062C11.0282 12.9405 11.1083 12.7345 11.0748 12.5307L10.6313 9.82008L12.5104 7.90029C12.6517 7.75592 12.7023 7.53989 12.6415 7.34351ZM9.71219 9.24101C9.59016 9.36574 9.53446 9.54567 9.56332 9.72188L9.87524 11.6289L8.2417 10.7288C8.16575 10.6868 8.08321 10.6661 8.00016 10.6661C7.91712 10.6661 7.83458 10.6868 7.75863 10.7288L6.12508 11.6289L6.437 9.72188C6.46587 9.54567 6.41017 9.36574 6.28813 9.24101L4.96651 7.89073L6.79298 7.61208C6.96211 7.5866 7.10794 7.47514 7.18339 7.31485L8.00016 5.5803L8.81693 7.31485C8.89238 7.47514 9.03822 7.5866 9.20734 7.61208L11.0338 7.89073L9.71219 9.24101Z" fill="#0F7EB0"/>
</svg>
