<svg width="18" height="18" viewBox="0 0 18 18" fill="none" xmlns="http://www.w3.org/2000/svg">
<path d="M16.3125 3.375C15 3.375 13.6875 3.375 12.375 3.375V1.90558C12.375 1.16511 11.7026 0.5625 10.8759 0.5625H7.12406C6.29736 0.5625 5.625 1.16511 5.625 1.90558V3.375C4.31252 3.375 2.99998 3.375 1.6875 3.375C1.37661 3.375 1.125 3.62689 1.125 3.9375C1.125 4.24811 1.37661 4.5 1.6875 4.5H2.27503L2.79219 15.8521C2.8323 16.7412 3.56068 17.4375 4.45112 17.4375H13.5489C14.4393 17.4375 15.1677 16.7412 15.2078 15.8524L15.725 4.5H16.3125C16.6234 4.5 16.875 4.24811 16.875 3.9375C16.875 3.62689 16.6234 3.375 16.3125 3.375ZM6.75 1.90558C6.75 1.81659 6.89558 1.6875 7.12406 1.6875H10.8759C11.1044 1.6875 11.25 1.81659 11.25 1.90558V3.375H6.75V1.90558ZM14.0839 15.8016C14.0713 16.0881 13.8362 16.3125 13.5489 16.3125H4.45112C4.16385 16.3125 3.92873 16.0881 3.91607 15.8014L3.40138 4.5H14.5987L14.0839 15.8016Z" fill="#979797"/>
<path d="M6.1875 7.875C5.87891 7.875 5.625 8.12891 5.625 8.4375V12.375C5.625 12.6836 5.87891 12.9375 6.1875 12.9375C6.49609 12.9375 6.75 12.6836 6.75 12.375V8.4375C6.75 8.12891 6.49609 7.875 6.1875 7.875Z" fill="#979797"/>
<path d="M11.25 8.4375V12.375C11.25 12.6856 11.5016 12.9375 11.8125 12.9375C12.1234 12.9375 12.375 12.6856 12.375 12.375V8.4375C12.375 8.12689 12.1234 7.875 11.8125 7.875C11.5016 7.875 11.25 8.12689 11.25 8.4375Z" fill="#979797"/>
<path d="M9 6.75C8.69141 6.75 8.4375 7.00391 8.4375 7.3125V13.5C8.4375 13.8086 8.69141 14.0625 9 14.0625C9.30859 14.0625 9.5625 13.8086 9.5625 13.5V7.3125C9.5625 7.00391 9.30859 6.75 9 6.75Z" fill="#979797"/>
</svg>
