<svg width="16" height="17" viewBox="0 0 16 17" fill="none" xmlns="http://www.w3.org/2000/svg">
<g clip-path="url(#clip0_196_3484)">
<mask id="mask0_196_3484" style="mask-type:luminance" maskUnits="userSpaceOnUse" x="0" y="0" width="16" height="17">
<path d="M0 0.500001H16V16.5H0V0.500001Z" fill="white"/>
</mask>
<g mask="url(#mask0_196_3484)">
<path fill-rule="evenodd" clip-rule="evenodd" d="M0.65625 16.0313C0.65625 16.2901 0.866116 16.5 1.125 16.5H14.875C15.1339 16.5 15.3437 16.2901 15.3437 16.0313V4.71875C15.3437 3.42434 14.2944 2.375 13 2.375H12.375C12.1161 2.375 11.9062 2.58487 11.9062 2.84375C11.9062 3.10263 12.1161 3.3125 12.375 3.3125H13C13.7766 3.3125 14.4062 3.9421 14.4062 4.71875V15.5625H1.59375V4.71875C1.59375 3.9421 2.22335 3.3125 3 3.3125H3.625C3.88388 3.3125 4.09375 3.10263 4.09375 2.84375C4.09375 2.58487 3.88388 2.375 3.625 2.375H3C1.70559 2.375 0.65625 3.42434 0.65625 4.71875V16.0313Z" fill="#0F7EB0"/>
<path fill-rule="evenodd" clip-rule="evenodd" d="M8.00001 5.1875C8.13912 5.1875 8.27105 5.12571 8.36011 5.01884L11.4851 1.26884C11.6015 1.12911 11.6266 0.934639 11.5495 0.769927C11.4724 0.605216 11.3069 0.5 11.125 0.5H4.87501C4.69312 0.5 4.52766 0.605216 4.45051 0.769927C4.37336 0.934639 4.39846 1.12911 4.5149 1.26884L7.6399 5.01884C7.72896 5.12571 7.86089 5.1875 8.00001 5.1875ZM5.87581 1.4375H10.1242L8.00001 3.98654L5.87581 1.4375Z" fill="#0F7EB0"/>
<path fill-rule="evenodd" clip-rule="evenodd" d="M10.3438 8.46875C10.3438 8.72763 10.5536 8.9375 10.8125 8.9375H12.6875C12.9464 8.9375 13.1562 8.72763 13.1562 8.46875C13.1562 8.20987 12.9464 8 12.6875 8H10.8125C10.5536 8 10.3438 8.20987 10.3438 8.46875Z" fill="#0F7EB0"/>
<path fill-rule="evenodd" clip-rule="evenodd" d="M5.77645 16.3447C5.86535 16.4435 5.99205 16.5 6.125 16.5H9.875C10.008 16.5 10.1347 16.4435 10.2235 16.3447C10.3124 16.2458 10.3552 16.1139 10.3411 15.9817L9.40362 7.16916C9.37827 6.93082 9.17719 6.75 8.9375 6.75H7.0625C6.82281 6.75 6.62174 6.93082 6.59638 7.16916L5.65888 15.9817C5.64482 16.1139 5.68756 16.2458 5.77645 16.3447ZM6.64626 15.5625L7.48403 7.6875H8.51597L9.35374 15.5625H6.64626Z" fill="#0F7EB0"/>
<path fill-rule="evenodd" clip-rule="evenodd" d="M6.60786 7.33244C6.66002 7.54111 6.84752 7.6875 7.06261 7.6875H8.93761C9.1527 7.6875 9.3402 7.54111 9.39236 7.33244L9.70486 6.08244C9.76765 5.83128 9.61495 5.57678 9.3638 5.514C9.11264 5.45121 8.85814 5.60391 8.79536 5.85506L8.57162 6.75H7.4286L7.20486 5.85506C7.14208 5.60391 6.88758 5.45121 6.63642 5.514C6.38527 5.57678 6.23257 5.83128 6.29536 6.08244L6.60786 7.33244Z" fill="#0F7EB0"/>
<path fill-rule="evenodd" clip-rule="evenodd" d="M6.07881 7.06022C6.21856 7.07405 6.35715 7.02451 6.45646 6.9252L8.33146 5.0502C8.50289 4.87877 8.51531 4.60491 8.3601 4.41866L5.2351 0.668662C5.14042 0.555046 4.99768 0.492776 4.85 0.500665C4.70231 0.508554 4.56701 0.585677 4.48498 0.708732L3.23498 2.58373C3.13001 2.74118 3.13001 2.94631 3.23498 3.10376L5.73498 6.85376C5.81288 6.97061 5.93906 7.04638 6.07881 7.06022ZM6.19785 5.85798L4.18837 2.84375L4.91679 1.75111L7.36585 4.68998L6.19785 5.85798Z" fill="#0F7EB0"/>
<path fill-rule="evenodd" clip-rule="evenodd" d="M9.92119 7.06022C10.0609 7.04638 10.1871 6.97061 10.265 6.85376L12.765 3.10376C12.87 2.94631 12.87 2.74118 12.765 2.58373L11.515 0.708732C11.433 0.585677 11.2977 0.508554 11.15 0.500665C11.0023 0.492776 10.8596 0.555046 10.7649 0.668662L7.6399 4.41866C7.48469 4.60491 7.49712 4.87877 7.66855 5.0502L9.54355 6.9252C9.64285 7.02451 9.78144 7.07405 9.92119 7.06022ZM8.63415 4.68998L11.0832 1.75111L11.8116 2.84375L9.80215 5.85798L8.63415 4.68998Z" fill="#0F7EB0"/>
</g>
</g>
<defs>
<clipPath id="clip0_196_3484">
<rect width="16" height="16" fill="white" transform="translate(0 0.5)"/>
</clipPath>
</defs>
</svg>
