<svg width="18" height="18" viewBox="0 0 18 18" fill="none" xmlns="http://www.w3.org/2000/svg">
<path fill-rule="evenodd" clip-rule="evenodd" d="M5.25 5.8125C4.73223 5.8125 4.3125 6.23223 4.3125 6.75C4.3125 7.26777 4.73223 7.6875 5.25 7.6875C5.76777 7.6875 6.1875 7.26777 6.1875 6.75C6.1875 6.23223 5.76777 5.8125 5.25 5.8125ZM3.1875 6.75C3.1875 5.61092 4.11092 4.6875 5.25 4.6875C6.38908 4.6875 7.3125 5.61092 7.3125 6.75C7.3125 7.8891 6.38908 8.8125 5.25 8.8125C4.11092 8.8125 3.1875 7.8891 3.1875 6.75Z" fill="#22A9E7"/>
<path fill-rule="evenodd" clip-rule="evenodd" d="M7.6092 11.7032C6.67186 12.7529 5.69428 14.1885 4.66075 16.0256C4.50841 16.2963 4.16544 16.3923 3.89469 16.24C3.62394 16.0876 3.52795 15.7447 3.68027 15.4739C4.73548 13.5984 5.75854 12.0866 6.77005 10.9539C7.779 9.82403 8.80388 9.0405 9.86925 8.67158C10.9551 8.29553 12.0393 8.36595 13.1083 8.86425C14.1585 9.35378 15.176 10.2468 16.1866 11.4868C16.3828 11.7276 16.3467 12.082 16.1059 12.2782C15.8651 12.4744 15.5108 12.4383 15.3145 12.1975C14.36 11.0263 13.4697 10.274 12.633 9.88388C11.815 9.50265 11.0331 9.45908 10.2374 9.73463C9.4212 10.0173 8.54902 10.6508 7.6092 11.7032Z" fill="#22A9E7"/>
<path fill-rule="evenodd" clip-rule="evenodd" d="M1.23093 2.73089C1.89905 2.06277 2.80519 1.6875 3.75 1.6875H9.21C9.52065 1.6875 9.7725 1.93934 9.7725 2.25C9.7725 2.56066 9.52065 2.8125 9.21 2.8125H3.75C3.10351 2.8125 2.48353 3.06928 2.02643 3.52638C1.56931 3.98349 1.3125 4.60352 1.3125 5.25V12.75C1.3125 13.3964 1.5693 14.0164 2.02643 14.4735C2.48356 14.9307 3.10355 15.1875 3.75 15.1875H12.75C13.3964 15.1875 14.0164 14.9307 14.4736 14.4735C14.9307 14.0164 15.1875 13.3964 15.1875 12.75V9C15.1875 8.68935 15.4393 8.4375 15.75 8.4375C16.0607 8.4375 16.3125 8.68935 16.3125 9V12.75C16.3125 13.6948 15.9372 14.6009 15.2691 15.269C14.601 15.9371 13.6948 16.3125 12.75 16.3125H3.75C2.80514 16.3125 1.89901 15.9371 1.23093 15.269C0.562837 14.6009 0.1875 13.6948 0.1875 12.75V5.25C0.1875 4.30518 0.562824 3.39899 1.23093 2.73089Z" fill="#22A9E7"/>
<path fill-rule="evenodd" clip-rule="evenodd" d="M14.0625 0.0595703C14.3732 0.0595703 14.625 0.31141 14.625 0.62207V6.62207C14.625 6.93273 14.3732 7.18457 14.0625 7.18457C13.7518 7.18457 13.5 6.93273 13.5 6.62207V0.62207C13.5 0.31141 13.7518 0.0595703 14.0625 0.0595703Z" fill="#22A9E7"/>
<path fill-rule="evenodd" clip-rule="evenodd" d="M13.6654 0.224322C13.8851 0.00465308 14.2412 0.00465308 14.4609 0.224322L16.8609 2.62433C17.0805 2.84399 17.0805 3.20015 16.8609 3.41982C16.6412 3.63949 16.2851 3.63949 16.0654 3.41982L14.0631 1.41756L12.0609 3.41982C11.8412 3.63949 11.485 3.63949 11.2654 3.41982C11.0457 3.20015 11.0457 2.84399 11.2654 2.62433L13.6654 0.224322Z" fill="#22A9E7"/>
</svg>
