<svg width="16" height="16" viewBox="0 0 16 16" fill="none" xmlns="http://www.w3.org/2000/svg">
<path d="M7.99981 7.6163C9.81031 7.6163 11.2833 6.1433 11.2833 4.3328C11.2833 2.5228 9.81031 1.0498 7.99981 1.0498C6.18931 1.0498 4.71631 2.5228 4.71631 4.3333C4.71631 6.1438 6.18931 7.6163 7.99981 7.6163ZM7.99981 1.9498C9.31431 1.9498 10.3833 3.0188 10.3833 4.3333C10.3833 5.6478 9.31431 6.7168 7.99981 6.7168C6.68531 6.7168 5.61631 5.6473 5.61631 4.3333C5.61631 3.0193 6.68531 1.9498 7.99981 1.9498Z" fill="#22A9E7"/>
<path d="M12.417 9.86942C11.241 8.97492 9.67204 8.48242 7.99754 8.48242C6.32354 8.48242 4.75554 8.97442 3.58154 9.86842C2.85104 10.4244 2.41504 11.3294 2.41504 12.2899V13.5884C2.41504 14.3389 3.02604 14.9494 3.77654 14.9494H12.224C12.9745 14.9494 13.5855 14.3404 13.5855 13.5914V12.2914C13.585 11.3314 13.1485 10.4264 12.417 9.86942ZM12.6845 13.5914C12.6845 13.8439 12.478 14.0499 12.2235 14.0499H3.77654C3.52204 14.0499 3.31554 13.8429 3.31554 13.5889V12.2904C3.31554 11.6094 3.61854 10.9719 4.12654 10.5849C5.14454 9.80992 6.51954 9.38292 7.99754 9.38292C9.47604 9.38292 10.852 9.81042 11.872 10.5864C12.381 10.9734 12.6845 11.6114 12.6845 12.2919V13.5914Z" fill="#22A9E7"/>
</svg>
