<svg width="18" height="18" viewBox="0 0 18 18" fill="none" xmlns="http://www.w3.org/2000/svg">
<path d="M9.00009 8.56846C11.0369 8.56846 12.694 6.91134 12.694 4.87453C12.694 2.83828 11.0369 1.18115 9.00009 1.18115C6.96328 1.18115 5.30615 2.83828 5.30615 4.87509C5.30615 6.9119 6.96328 8.56846 9.00009 8.56846ZM9.00009 2.19365C10.4789 2.19365 11.6815 3.39628 11.6815 4.87509C11.6815 6.3539 10.4789 7.55653 9.00009 7.55653C7.52128 7.55653 6.31865 6.35334 6.31865 4.87509C6.31865 3.39684 7.52128 2.19365 9.00009 2.19365Z" fill="white"/>
<path d="M13.9692 11.1036C12.6462 10.0973 10.881 9.54321 8.99723 9.54321C7.11398 9.54321 5.34998 10.0967 4.02923 11.1025C3.20742 11.728 2.71692 12.7461 2.71692 13.8267V15.2875C2.71692 16.1318 3.40429 16.8186 4.24861 16.8186H13.752C14.5964 16.8186 15.2837 16.1335 15.2837 15.2908V13.8283C15.2832 12.7483 14.7921 11.7302 13.9692 11.1036ZM14.2701 15.2908C14.2701 15.5749 14.0378 15.8067 13.7515 15.8067H4.24861C3.96229 15.8067 3.72998 15.5738 3.72998 15.288V13.8272C3.72998 13.0611 4.07086 12.3439 4.64236 11.9085C5.78761 11.0367 7.33448 10.5563 8.99723 10.5563C10.6605 10.5563 12.2085 11.0372 13.356 11.9102C13.9287 12.3456 14.2701 13.0633 14.2701 13.8289V15.2908Z" fill="white"/>
</svg>
