<svg width="18" height="18" viewBox="0 0 18 18" fill="none" xmlns="http://www.w3.org/2000/svg">
<path d="M8.99997 14.8182C5.63097 14.8182 2.40524 12.3396 0.275978 9.76636C-0.0919928 9.32162 -0.0919928 8.67605 0.275978 8.23136C0.811326 7.58437 1.93322 6.33615 3.43188 5.24526C7.20657 2.49772 10.7861 2.49242 14.5681 5.24526C16.3287 6.5268 17.724 8.20732 17.724 8.23136C18.0919 8.67605 18.0919 9.32162 17.724 9.76632C15.595 12.3392 12.3697 14.8182 8.99997 14.8182ZM8.99997 4.28794C5.26782 4.28794 2.0326 7.84714 1.12997 8.938C1.1008 8.97326 1.1008 9.02445 1.12997 9.05972C2.03263 10.1506 5.26782 13.7098 8.99997 13.7098C12.7321 13.7098 15.9674 10.1506 16.87 9.05972C16.9226 8.99608 16.8665 8.938 16.87 8.938C15.9673 7.84714 12.7321 4.28794 8.99997 4.28794Z" fill="#22A9E7"/>
<path d="M8.9997 12.8783C6.86049 12.8783 5.12012 11.1379 5.12012 8.99872C5.12012 6.85951 6.86049 5.11914 8.9997 5.11914C11.1389 5.11914 12.8793 6.85951 12.8793 8.99872C12.8793 11.1379 11.1389 12.8783 8.9997 12.8783ZM8.9997 6.22759C7.4717 6.22759 6.22857 7.47072 6.22857 8.99872C6.22857 10.5267 7.4717 11.7698 8.9997 11.7698C10.5277 11.7698 11.7708 10.5267 11.7708 8.99872C11.7708 7.47072 10.5277 6.22759 8.9997 6.22759Z" fill="#22A9E7"/>
</svg>
