<svg width="16" height="17" viewBox="0 0 16 17" fill="none" xmlns="http://www.w3.org/2000/svg">
<path d="M13.5 4.49998H12.245C11.9379 3.61752 11.3637 2.85254 10.6021 2.3112C9.84057 1.76986 8.92937 1.479 7.995 1.479C7.06063 1.479 6.14943 1.76986 5.38786 2.3112C4.62628 2.85254 4.0521 3.61752 3.745 4.49998H2.5C2.10218 4.49998 1.72064 4.65802 1.43934 4.93932C1.15804 5.22063 1 5.60216 1 5.99998V14C1 14.3978 1.15804 14.7793 1.43934 15.0606C1.72064 15.3419 2.10218 15.5 2.5 15.5H13.5C13.8978 15.5 14.2794 15.3419 14.5607 15.0606C14.842 14.7793 15 14.3978 15 14V5.99998C15 5.60216 14.842 5.22063 14.5607 4.93932C14.2794 4.65802 13.8978 4.49998 13.5 4.49998ZM13.5 5.49998C13.6326 5.49998 13.7598 5.55266 13.8536 5.64643C13.9473 5.7402 14 5.86738 14 5.99998V6.58498C13.8394 6.52848 13.6703 6.49973 13.5 6.49998H12.47C12.49 6.33406 12.5 6.1671 12.5 5.99998C12.5001 5.83286 12.4901 5.66589 12.47 5.49998H13.5ZM8 2.49998C8.92826 2.49998 9.8185 2.86873 10.4749 3.52511C11.1313 4.18149 11.5 5.07173 11.5 5.99998C11.5008 6.16729 11.4891 6.33442 11.465 6.49998H9.415C9.31301 6.21139 9.12518 5.96091 8.87671 5.78215C8.62825 5.6034 8.33104 5.50494 8.025 5.49998H8C7.90111 5.49998 7.80444 5.47066 7.72221 5.41572C7.63999 5.36078 7.5759 5.28269 7.53806 5.19133C7.50022 5.09996 7.49031 4.99943 7.50961 4.90244C7.5289 4.80545 7.57652 4.71636 7.64645 4.64643C7.71637 4.5765 7.80546 4.52888 7.90245 4.50959C7.99945 4.4903 8.09998 4.5002 8.19134 4.53804C8.2827 4.57589 8.36079 4.63997 8.41574 4.7222C8.47068 4.80442 8.5 4.90109 8.5 4.99998C8.5 5.13259 8.55268 5.25977 8.64645 5.35354C8.74021 5.44731 8.86739 5.49998 9 5.49998C9.13261 5.49998 9.25979 5.44731 9.35355 5.35354C9.44732 5.25977 9.5 5.13259 9.5 4.99998C9.50016 4.68966 9.40407 4.38692 9.22497 4.13349C9.04587 3.88007 8.79258 3.68843 8.5 3.58498V3.49998C8.5 3.36738 8.44732 3.2402 8.35355 3.14643C8.25979 3.05266 8.13261 2.99998 8 2.99998C7.86739 2.99998 7.74021 3.05266 7.64645 3.14643C7.55268 3.2402 7.5 3.36738 7.5 3.49998V3.58498C7.16583 3.70254 6.88405 3.93456 6.70457 4.23996C6.52508 4.54536 6.45947 4.90443 6.51936 5.25357C6.57924 5.60271 6.76076 5.91939 7.03176 6.14752C7.30277 6.37565 7.64576 6.50051 8 6.49998H4.535C4.51092 6.33442 4.49922 6.16729 4.5 5.99998C4.5 5.07173 4.86875 4.18149 5.52513 3.52511C6.1815 2.86873 7.07174 2.49998 8 2.49998ZM2.5 5.49998H3.5V6.49998H2.5C2.36739 6.49998 2.24021 6.44731 2.14645 6.35354C2.05268 6.25977 2 6.13259 2 5.99998C2 5.86738 2.05268 5.7402 2.14645 5.64643C2.24021 5.55266 2.36739 5.49998 2.5 5.49998ZM13.5 14.5H2.5C2.36739 14.5 2.24021 14.4473 2.14645 14.3535C2.05268 14.2598 2 14.1326 2 14V7.41498C2.16063 7.47149 2.32972 7.50024 2.5 7.49998H13.5C13.6326 7.49998 13.7598 7.55266 13.8536 7.64643C13.9473 7.7402 14 7.86738 14 7.99998V8.99998H12.5C11.9696 8.99998 11.4609 9.2107 11.0858 9.58577C10.7107 9.96084 10.5 10.4696 10.5 11C10.5 11.5304 10.7107 12.0391 11.0858 12.4142C11.4609 12.7893 11.9696 13 12.5 13H14V14C14 14.1326 13.9473 14.2598 13.8536 14.3535C13.7598 14.4473 13.6326 14.5 13.5 14.5ZM14 12H12.5C12.2348 12 11.9804 11.8946 11.7929 11.7071C11.6054 11.5196 11.5 11.2652 11.5 11C11.5 10.7348 11.6054 10.4804 11.7929 10.2929C11.9804 10.1053 12.2348 9.99998 12.5 9.99998H14V12Z" fill="#0F7EB0"/>
<path d="M8.5 10.5H7.5C7.36739 10.5 7.24021 10.5527 7.14645 10.6464C7.05268 10.7402 7 10.8674 7 11C7 11.1326 7.05268 11.2598 7.14645 11.3536C7.24021 11.4473 7.36739 11.5 7.5 11.5H8.5C8.63261 11.5 8.75979 11.4473 8.85355 11.3536C8.94732 11.2598 9 11.1326 9 11C9 10.8674 8.94732 10.7402 8.85355 10.6464C8.75979 10.5527 8.63261 10.5 8.5 10.5Z" fill="#0F7EB0"/>
</svg>
