<svg width="16" height="16" viewBox="0 0 16 16" fill="none" xmlns="http://www.w3.org/2000/svg">
<g clip-path="url(#clip0_794_381)">
<path d="M15.2422 9.89719C15.4072 9.28219 15.4922 8.64219 15.4922 7.99219C15.4922 3.85719 12.1272 0.492188 7.99219 0.492188C3.85719 0.492188 0.492188 3.85719 0.492188 7.99219C0.492188 12.1272 3.85719 15.4922 7.99219 15.4922C8.64219 15.4922 9.28219 15.4072 9.89719 15.2422C9.97719 15.3922 10.1272 15.4972 10.3022 15.5072H10.3322C10.5222 15.5072 10.7022 15.3972 10.7822 15.2222L12.2122 12.2122L15.2222 10.7822C15.4072 10.6972 15.5222 10.5022 15.5072 10.3022C15.4972 10.1272 15.3922 9.97719 15.2422 9.89719ZM13.7522 4.99219H11.5072C11.3372 4.03719 11.0872 3.07719 10.7572 2.11719C12.0422 2.72719 13.0972 3.73719 13.7522 4.99219ZM6.44719 1.68719C6.94219 1.56219 7.45719 1.49219 7.99219 1.49219C8.52719 1.49219 9.03719 1.56219 9.53719 1.68719C9.96719 2.78719 10.2822 3.89219 10.4922 4.99219H5.49219C5.69719 3.88719 6.01219 2.78219 6.44719 1.68719ZM5.22219 2.12219C4.88719 3.07719 4.64219 4.03219 4.47219 4.99219H2.23219C2.88719 3.73719 3.93719 2.72719 5.22219 2.12219ZM1.49219 7.99219C1.49219 7.29219 1.60719 6.62219 1.81219 5.99219H4.32719C4.17219 7.32719 4.17219 8.65719 4.32719 9.99219H1.81219C1.60719 9.36219 1.49219 8.69219 1.49219 7.99219ZM2.23219 10.9922H4.47219C4.64219 11.9522 4.88719 12.9072 5.22219 13.8622C3.93719 13.2572 2.88719 12.2472 2.23219 10.9922ZM5.33719 5.99219H10.6522C10.7522 6.78719 10.7922 7.59219 10.7722 8.39219L8.15219 7.51719C7.97219 7.45719 7.77219 7.50219 7.63719 7.63719C7.50219 7.77219 7.45719 7.97219 7.51719 8.15219L8.13219 9.99219H5.33719C5.17219 8.65719 5.17219 7.32719 5.33719 5.99219ZM7.99219 14.4922C7.45719 14.4922 6.94219 14.4222 6.44719 14.2972C6.01219 13.2022 5.69719 12.0972 5.49219 10.9922H8.46719L9.56719 14.2972C9.05719 14.4272 8.53219 14.4922 7.99219 14.4922ZM11.6222 11.3822C11.5172 11.4322 11.4322 11.5172 11.3822 11.6222L10.4122 13.6722L9.28719 10.2972L8.78219 8.78219L13.6722 10.4122L11.6222 11.3822ZM14.2972 9.56719L11.7622 8.72219C11.8022 7.81219 11.7672 6.89719 11.6572 5.99219H14.1722C14.3772 6.62219 14.4922 7.29219 14.4922 7.99219C14.4922 8.53219 14.4272 9.05719 14.2972 9.56719Z" fill="#22A9E7"/>
</g>
<defs>
<clipPath id="clip0_794_381">
<rect width="16" height="16" fill="white"/>
</clipPath>
</defs>
</svg>
